<svg width="133" height="134" viewBox="0 0 133 134" fill="none" xmlns="http://www.w3.org/2000/svg">
<path d="M32.7596 12.7008C33.0711 10.9821 34.8512 9.95431 36.4954 10.5439L43.9431 13.2147C45.2601 13.687 46.7244 13.1249 47.387 11.8927L51.1347 4.92443C51.962 3.38609 53.9726 2.95873 55.3541 4.02756L61.612 8.86913C62.7185 9.72522 64.2849 9.64314 65.2958 8.67607L71.0134 3.20689C72.2756 1.99951 74.3199 2.21437 75.3035 3.6578L79.759 10.1962C80.5468 11.3523 82.0618 11.7583 83.3221 11.151L90.4499 7.71628C92.0235 6.95804 93.9013 7.79409 94.3907 9.47083L96.6076 17.066C96.9996 18.409 98.3151 19.2633 99.7014 19.0752L107.542 18.0112C109.273 17.7763 110.8 19.1517 110.747 20.8976L110.509 28.8062C110.467 30.2046 111.454 31.4235 112.83 31.673L120.616 33.0839C122.334 33.3953 123.362 35.1755 122.772 36.8196L120.102 44.2674C119.629 45.5843 120.192 47.0486 121.424 47.7113L128.392 51.4589C129.93 52.2862 130.358 54.2968 129.289 55.6783L124.447 61.9363C123.591 63.0428 123.673 64.6091 124.64 65.6201L130.11 71.3376C131.317 72.5998 131.102 74.6441 129.659 75.6277L123.12 80.0832C121.964 80.871 121.558 82.386 122.165 83.6464L125.6 90.7742C126.358 92.3477 125.522 94.2255 123.846 94.7149L116.25 96.9319C114.907 97.3239 114.053 98.6393 114.241 100.026L115.305 107.866C115.54 109.597 114.165 111.124 112.419 111.072L104.51 110.833C103.112 110.791 101.893 111.778 101.643 113.155L100.233 120.94C99.9211 122.659 98.1409 123.686 96.4967 123.097L89.049 120.426C87.7321 119.954 86.2678 120.516 85.6051 121.748L81.8575 128.716C81.0301 130.255 79.0196 130.682 77.6381 129.613L71.3801 124.772C70.2736 123.915 68.7073 123.998 67.6963 124.965L61.9788 130.434C60.7165 131.641 58.6723 131.426 57.6887 129.983L53.2332 123.444C52.4454 122.288 50.9304 121.882 49.67 122.49L42.5422 125.924C40.9687 126.683 39.0909 125.847 38.6015 124.17L36.3845 116.575C35.9925 115.232 34.6771 114.377 33.2908 114.565L25.4505 115.629C23.7196 115.864 22.1921 114.489 22.2448 112.743L22.4834 104.834C22.5255 103.436 21.5385 102.217 20.1619 101.968L12.3765 100.557C10.6578 100.245 9.63006 98.4652 10.2197 96.821L12.8905 89.3732C13.3627 88.0563 12.8006 86.592 11.5685 85.9294L4.60019 82.1817C3.06185 81.3544 2.63448 79.3438 3.70332 77.9623L8.54488 71.7044C9.40098 70.5978 9.31889 69.0315 8.35182 68.0206L2.88265 62.303C1.67526 61.0408 1.89012 58.9965 3.33355 58.0129L9.87195 53.5574C11.0281 52.7696 11.434 51.2546 10.8267 49.9943L7.39204 42.8665C6.63379 41.2929 7.46984 39.4151 9.14658 38.9257L16.7418 36.7088C18.0848 36.3168 18.939 35.0013 18.7509 33.615L17.6869 25.7747C17.4521 24.0439 18.8275 22.5163 20.5734 22.569L28.4819 22.8076C29.8803 22.8498 31.0992 21.8627 31.3487 20.4861L32.7596 12.7008Z" fill="#e07362" stroke="#000000" stroke-width="4"/>
</svg>
