<?xml version="1.0" encoding="UTF-8"?>
<svg id="Capa_2" data-name="Capa 2" xmlns="http://www.w3.org/2000/svg" viewBox="0 0 1925 133">
  <defs>
    <style>
      .cls-1, .cls-2 {
        stroke: #000;
        stroke-miterlimit: 10;
      }

      .cls-2 {
        fill: #fff;
      }
    </style>
  </defs>
  <g id="fondo">
    <g>
      <rect class="cls-1" x=".5" y=".5" width="74" height="66"/>
      <rect class="cls-2" x="74.5" y=".5" width="74" height="66"/>
      <rect class="cls-1" x="148.5" y=".5" width="74" height="66"/>
      <rect class="cls-2" x="222.5" y=".5" width="74" height="66"/>
      <rect class="cls-1" x="296.5" y=".5" width="74" height="66"/>
      <rect class="cls-2" x="370.5" y=".5" width="74" height="66"/>
      <rect class="cls-1" x="444.5" y=".5" width="74" height="66"/>
      <rect class="cls-2" x="518.5" y=".5" width="74" height="66"/>
      <rect class="cls-1" x="592.5" y=".5" width="74" height="66"/>
      <rect class="cls-2" x="666.5" y=".5" width="74" height="66"/>
      <rect class="cls-1" x="740.5" y=".5" width="74" height="66"/>
      <rect class="cls-2" x="814.5" y=".5" width="74" height="66"/>
      <rect class="cls-1" x="888.5" y=".5" width="74" height="66"/>
      <rect class="cls-2" x="962.5" y=".5" width="74" height="66"/>
      <rect class="cls-1" x="1036.5" y=".5" width="74" height="66"/>
      <rect class="cls-2" x="1110.5" y=".5" width="74" height="66"/>
      <rect class="cls-1" x="1184.5" y=".5" width="74" height="66"/>
      <rect class="cls-2" x="1258.5" y=".5" width="74" height="66"/>
      <rect class="cls-1" x="1332.5" y=".5" width="74" height="66"/>
      <rect class="cls-2" x="1406.5" y=".5" width="74" height="66"/>
      <rect class="cls-1" x="1480.5" y=".5" width="74" height="66"/>
      <rect class="cls-2" x="1554.5" y=".5" width="74" height="66"/>
      <rect class="cls-1" x="1628.5" y=".5" width="74" height="66"/>
      <rect class="cls-2" x="1702.5" y=".5" width="74" height="66"/>
      <rect class="cls-1" x="1776.5" y=".5" width="74" height="66"/>
      <rect class="cls-2" x="1850.5" y=".5" width="74" height="66"/>
      <rect class="cls-2" x=".5" y="66.5" width="74" height="66"/>
      <rect class="cls-1" x="74.5" y="66.5" width="74" height="66"/>
      <rect class="cls-2" x="148.5" y="66.5" width="74" height="66"/>
      <rect class="cls-1" x="222.5" y="66.5" width="74" height="66"/>
      <rect class="cls-2" x="296.5" y="66.5" width="74" height="66"/>
      <rect class="cls-1" x="370.5" y="66.5" width="74" height="66"/>
      <rect class="cls-2" x="444.5" y="66.5" width="74" height="66"/>
      <rect class="cls-1" x="518.5" y="66.5" width="74" height="66"/>
      <rect class="cls-2" x="592.5" y="66.5" width="74" height="66"/>
      <rect class="cls-1" x="666.5" y="66.5" width="74" height="66"/>
      <rect class="cls-2" x="740.5" y="66.5" width="74" height="66"/>
      <rect class="cls-1" x="814.5" y="66.5" width="74" height="66"/>
      <rect class="cls-2" x="888.5" y="66.5" width="74" height="66"/>
      <rect class="cls-1" x="962.5" y="66.5" width="74" height="66"/>
      <rect class="cls-2" x="1036.5" y="66.5" width="74" height="66"/>
      <rect class="cls-1" x="1110.5" y="66.5" width="74" height="66"/>
      <rect class="cls-2" x="1184.5" y="66.5" width="74" height="66"/>
      <rect class="cls-1" x="1258.5" y="66.5" width="74" height="66"/>
      <rect class="cls-2" x="1332.5" y="66.5" width="74" height="66"/>
      <rect class="cls-1" x="1406.5" y="66.5" width="74" height="66"/>
      <rect class="cls-2" x="1480.5" y="66.5" width="74" height="66"/>
      <rect class="cls-1" x="1554.5" y="66.5" width="74" height="66"/>
      <rect class="cls-2" x="1628.5" y="66.5" width="74" height="66"/>
      <rect class="cls-1" x="1702.5" y="66.5" width="74" height="66"/>
      <rect class="cls-2" x="1776.5" y="66.5" width="74" height="66"/>
      <rect class="cls-1" x="1850.5" y="66.5" width="74" height="66"/>
    </g>
  </g>
</svg>