<svg width="1728" height="54" viewBox="0 0 1728 54" fill="none" xmlns="http://www.w3.org/2000/svg">
<path d="M0 54V27L27 0L54 27V54L27 27L0 54Z" fill="#434560"/>
<path d="M54 54V27L81 0L108 27V54L81 27L54 54Z" fill="#434560"/>
<path d="M108 54V27L135 0L162 27V54L135 27L108 54Z" fill="#434560"/>
<path d="M162 54V27L189 0L216 27V54L189 27L162 54Z" fill="#434560"/>
<path d="M216 54V27L243 0L270 27V54L243 27L216 54Z" fill="#434560"/>
<path d="M270 54V27L297 0L324 27V54L297 27L270 54Z" fill="#434560"/>
<path d="M324 54V27L351 0L378 27V54L351 27L324 54Z" fill="#434560"/>
<path d="M378 54V27L405 0L432 27V54L405 27L378 54Z" fill="#434560"/>
<path d="M432 54V27L459 0L486 27V54L459 27L432 54Z" fill="#434560"/>
<path d="M486 54V27L513 0L540 27V54L513 27L486 54Z" fill="#434560"/>
<path d="M540 54V27L567 0L594 27V54L567 27L540 54Z" fill="#434560"/>
<path d="M594 54V27L621 0L648 27V54L621 27L594 54Z" fill="#434560"/>
<path d="M648 54V27L675 0L702 27V54L675 27L648 54Z" fill="#434560"/>
<path d="M702 54V27L729 0L756 27V54L729 27L702 54Z" fill="#434560"/>
<path d="M756 54V27L783 0L810 27V54L783 27L756 54Z" fill="#434560"/>
<path d="M810 54V27L837 0L864 27V54L837 27L810 54Z" fill="#434560"/>
<path d="M864 54V27L891 0L918 27V54L891 27L864 54Z" fill="#434560"/>
<path d="M918 54V27L945 0L972 27V54L945 27L918 54Z" fill="#434560"/>
<path d="M972 54V27L999 0L1026 27V54L999 27L972 54Z" fill="#434560"/>
<path d="M1026 54V27L1053 0L1080 27V54L1053 27L1026 54Z" fill="#434560"/>
<path d="M1080 54V27L1107 0L1134 27V54L1107 27L1080 54Z" fill="#434560"/>
<path d="M1134 54V27L1161 0L1188 27V54L1161 27L1134 54Z" fill="#434560"/>
<path d="M1188 54V27L1215 0L1242 27V54L1215 27L1188 54Z" fill="#434560"/>
<path d="M1242 54V27L1269 0L1296 27V54L1269 27L1242 54Z" fill="#434560"/>
<path d="M1296 54V27L1323 0L1350 27V54L1323 27L1296 54Z" fill="#434560"/>
<path d="M1350 54V27L1377 0L1404 27V54L1377 27L1350 54Z" fill="#434560"/>
<path d="M1404 54V27L1431 0L1458 27V54L1431 27L1404 54Z" fill="#434560"/>
<path d="M1458 54V27L1485 0L1512 27V54L1485 27L1458 54Z" fill="#434560"/>
<path d="M1512 54V27L1539 0L1566 27V54L1539 27L1512 54Z" fill="#434560"/>
<path d="M1566 54V27L1593 0L1620 27V54L1593 27L1566 54Z" fill="#434560"/>
<path d="M1620 54V27L1647 0L1674 27V54L1647 27L1620 54Z" fill="#434560"/>
<path d="M1674 54V27L1701 0L1728 27V54L1701 27L1674 54Z" fill="#434560"/>
</svg>
