<?xml version="1.0" encoding="UTF-8"?>
<svg id="Capa_2" data-name="Capa 2" xmlns="http://www.w3.org/2000/svg" viewBox="0 0 1914.5 58.5">
  <defs>
    <style>
      .cls-1 {
        fill: #e07362;
        stroke: #e07362;
        stroke-miterlimit: 0;
      }
    </style>
  </defs>
  <g id="Capa_1-2" data-name="Capa 1">
    <path class="cls-1" d="m58,.5v28.75c0,2.48-.32,4.89-.91,7.19-.66,2.55-1.65,4.96-2.94,7.19-.96,1.65-2.08,3.21-3.34,4.63-.79.91-1.65,1.77-2.56,2.56-1.42,1.27-2.98,2.38-4.63,3.34-2.23,1.29-4.64,2.28-7.19,2.94-2.29.59-4.71.91-7.19.91s-4.89-.32-7.19-.91c-2.55-.66-4.96-1.65-7.19-2.94-1.65-.96-3.21-2.08-4.63-3.34-.91-.79-1.77-1.65-2.56-2.56-1.27-1.42-2.38-2.98-3.34-4.63-1.29-2.23-2.28-4.64-2.94-7.19-.59-2.29-.91-4.71-.91-7.19V.5h57.5Z"/>
    <path class="cls-1" d="m116,.5v28.75c0,2.48-.32,4.89-.91,7.19-.66,2.55-1.65,4.96-2.94,7.19-.96,1.65-2.08,3.21-3.34,4.63-.79.91-1.65,1.77-2.56,2.56-1.42,1.27-2.98,2.38-4.63,3.34-2.23,1.29-4.64,2.28-7.19,2.94-2.29.59-4.71.91-7.19.91s-4.89-.32-7.19-.91c-2.55-.66-4.96-1.65-7.19-2.94-1.65-.96-3.21-2.08-4.63-3.34-.91-.79-1.77-1.65-2.56-2.56-1.27-1.42-2.38-2.98-3.34-4.63-1.29-2.23-2.28-4.64-2.94-7.19-.59-2.29-.91-4.71-.91-7.19V.5h57.5Z"/>
    <path class="cls-1" d="m174,.5v28.75c0,2.48-.32,4.89-.91,7.19-.66,2.55-1.65,4.96-2.94,7.19-.96,1.65-2.08,3.21-3.34,4.63-.79.91-1.65,1.77-2.56,2.56-1.42,1.27-2.98,2.38-4.63,3.34-2.23,1.29-4.64,2.28-7.19,2.94-2.29.59-4.71.91-7.19.91s-4.89-.32-7.19-.91c-2.55-.66-4.96-1.65-7.19-2.94-1.65-.96-3.21-2.08-4.63-3.34-.91-.79-1.77-1.65-2.56-2.56-1.27-1.42-2.38-2.98-3.34-4.63-1.29-2.23-2.28-4.64-2.94-7.19-.59-2.29-.91-4.71-.91-7.19V.5h57.5Z"/>
    <path class="cls-1" d="m232,.5v28.75c0,2.48-.32,4.89-.91,7.19-.66,2.55-1.65,4.96-2.94,7.19-.96,1.65-2.08,3.21-3.34,4.63-.79.91-1.65,1.77-2.56,2.56-1.42,1.27-2.98,2.38-4.63,3.34-2.23,1.29-4.64,2.28-7.19,2.94-2.29.59-4.71.91-7.19.91s-4.89-.32-7.19-.91c-2.55-.66-4.96-1.65-7.19-2.94-1.65-.96-3.21-2.08-4.63-3.34-.91-.79-1.77-1.65-2.56-2.56-1.27-1.42-2.38-2.98-3.34-4.63-1.29-2.23-2.28-4.64-2.94-7.19-.59-2.29-.91-4.71-.91-7.19V.5h57.5Z"/>
    <path class="cls-1" d="m290,.5v28.75c0,2.48-.32,4.89-.91,7.19-.66,2.55-1.65,4.96-2.94,7.19-.96,1.65-2.08,3.21-3.34,4.63-.79.91-1.65,1.77-2.56,2.56-1.42,1.27-2.98,2.38-4.63,3.34-2.23,1.29-4.64,2.28-7.19,2.94-2.29.59-4.71.91-7.19.91s-4.89-.32-7.19-.91c-2.55-.66-4.96-1.65-7.19-2.94-1.65-.96-3.21-2.08-4.63-3.34-.91-.79-1.77-1.65-2.56-2.56-1.27-1.42-2.38-2.98-3.34-4.63-1.29-2.23-2.28-4.64-2.94-7.19-.59-2.29-.91-4.71-.91-7.19V.5h57.5Z"/>
    <path class="cls-1" d="m348,.5v28.75c0,2.48-.32,4.89-.91,7.19-.66,2.55-1.65,4.96-2.94,7.19-.96,1.65-2.08,3.21-3.34,4.63-.79.91-1.65,1.77-2.56,2.56-1.42,1.27-2.98,2.38-4.63,3.34-2.23,1.29-4.64,2.28-7.19,2.94-2.29.59-4.71.91-7.19.91s-4.89-.32-7.19-.91c-2.55-.66-4.96-1.65-7.19-2.94-1.65-.96-3.21-2.08-4.63-3.34-.91-.79-1.77-1.65-2.56-2.56-1.27-1.42-2.38-2.98-3.34-4.63-1.29-2.23-2.28-4.64-2.94-7.19-.59-2.29-.91-4.71-.91-7.19V.5h57.5Z"/>
    <path class="cls-1" d="m406,.5v28.75c0,2.48-.32,4.89-.91,7.19-.66,2.55-1.65,4.96-2.94,7.19-.96,1.65-2.08,3.21-3.34,4.63-.79.91-1.65,1.77-2.56,2.56-1.42,1.27-2.98,2.38-4.63,3.34-2.23,1.29-4.64,2.28-7.19,2.94-2.29.59-4.71.91-7.19.91s-4.89-.32-7.19-.91c-2.55-.66-4.96-1.65-7.19-2.94-1.65-.96-3.21-2.08-4.63-3.34-.91-.79-1.77-1.65-2.56-2.56-1.27-1.42-2.38-2.98-3.34-4.63-1.29-2.23-2.28-4.64-2.94-7.19-.59-2.29-.91-4.71-.91-7.19V.5h57.5Z"/>
    <path class="cls-1" d="m464,.5v28.75c0,2.48-.32,4.89-.91,7.19-.66,2.55-1.65,4.96-2.94,7.19-.96,1.65-2.08,3.21-3.34,4.63-.79.91-1.65,1.77-2.56,2.56-1.42,1.27-2.98,2.38-4.63,3.34-2.23,1.29-4.64,2.28-7.19,2.94-2.29.59-4.71.91-7.19.91s-4.89-.32-7.19-.91c-2.55-.66-4.96-1.65-7.19-2.94-1.65-.96-3.21-2.08-4.63-3.34-.91-.79-1.77-1.65-2.56-2.56-1.27-1.42-2.38-2.98-3.34-4.63-1.29-2.23-2.28-4.64-2.94-7.19-.59-2.29-.91-4.71-.91-7.19V.5h57.5Z"/>
    <path class="cls-1" d="m522,.5v28.75c0,2.48-.32,4.89-.91,7.19-.66,2.55-1.65,4.96-2.94,7.19-.96,1.65-2.08,3.21-3.34,4.63-.79.91-1.65,1.77-2.56,2.56-1.42,1.27-2.98,2.38-4.63,3.34-2.23,1.29-4.64,2.28-7.19,2.94-2.29.59-4.71.91-7.19.91s-4.89-.32-7.19-.91c-2.55-.66-4.96-1.65-7.19-2.94-1.65-.96-3.21-2.08-4.63-3.34-.91-.79-1.77-1.65-2.56-2.56-1.27-1.42-2.38-2.98-3.34-4.63-1.29-2.23-2.28-4.64-2.94-7.19-.59-2.29-.91-4.71-.91-7.19V.5h57.5Z"/>
    <path class="cls-1" d="m580,.5v28.75c0,2.48-.32,4.89-.91,7.19-.66,2.55-1.65,4.96-2.94,7.19-.96,1.65-2.08,3.21-3.34,4.63-.79.91-1.65,1.77-2.56,2.56-1.42,1.27-2.98,2.38-4.63,3.34-2.23,1.29-4.64,2.28-7.19,2.94-2.29.59-4.71.91-7.19.91s-4.89-.32-7.19-.91c-2.55-.66-4.96-1.65-7.19-2.94-1.65-.96-3.21-2.08-4.63-3.34-.91-.79-1.77-1.65-2.56-2.56-1.27-1.42-2.38-2.98-3.34-4.63-1.29-2.23-2.28-4.64-2.94-7.19-.59-2.29-.91-4.71-.91-7.19V.5h57.5Z"/>
    <path class="cls-1" d="m638,.5v28.75c0,2.48-.32,4.89-.91,7.19-.66,2.55-1.65,4.96-2.94,7.19-.96,1.65-2.08,3.21-3.34,4.63-.79.91-1.65,1.77-2.56,2.56-1.42,1.27-2.98,2.38-4.63,3.34-2.23,1.29-4.64,2.28-7.19,2.94-2.29.59-4.71.91-7.19.91s-4.89-.32-7.19-.91c-2.55-.66-4.96-1.65-7.19-2.94-1.65-.96-3.21-2.08-4.63-3.34-.91-.79-1.77-1.65-2.56-2.56-1.27-1.42-2.38-2.98-3.34-4.63-1.29-2.23-2.28-4.64-2.94-7.19-.59-2.29-.91-4.71-.91-7.19V.5h57.5Z"/>
    <path class="cls-1" d="m696,.5v28.75c0,2.48-.32,4.89-.91,7.19-.66,2.55-1.65,4.96-2.94,7.19-.96,1.65-2.08,3.21-3.34,4.63-.79.91-1.65,1.77-2.56,2.56-1.42,1.27-2.98,2.38-4.63,3.34-2.23,1.29-4.64,2.28-7.19,2.94-2.29.59-4.71.91-7.19.91s-4.89-.32-7.19-.91c-2.55-.66-4.96-1.65-7.19-2.94-1.65-.96-3.21-2.08-4.63-3.34-.91-.79-1.77-1.65-2.56-2.56-1.27-1.42-2.38-2.98-3.34-4.63-1.29-2.23-2.28-4.64-2.94-7.19-.59-2.29-.91-4.71-.91-7.19V.5h57.5Z"/>
    <path class="cls-1" d="m754,.5v28.75c0,2.48-.32,4.89-.91,7.19-.66,2.55-1.65,4.96-2.94,7.19-.96,1.65-2.08,3.21-3.34,4.63-.79.91-1.65,1.77-2.56,2.56-1.42,1.27-2.98,2.38-4.63,3.34-2.23,1.29-4.64,2.28-7.19,2.94-2.29.59-4.71.91-7.19.91s-4.89-.32-7.19-.91c-2.55-.66-4.96-1.65-7.19-2.94-1.65-.96-3.21-2.08-4.63-3.34-.91-.79-1.77-1.65-2.56-2.56-1.27-1.42-2.38-2.98-3.34-4.63-1.29-2.23-2.28-4.64-2.94-7.19-.59-2.29-.91-4.71-.91-7.19V.5h57.5Z"/>
    <path class="cls-1" d="m812,.5v28.75c0,2.48-.32,4.89-.91,7.19-.66,2.55-1.65,4.96-2.94,7.19-.96,1.65-2.08,3.21-3.34,4.63-.79.91-1.65,1.77-2.56,2.56-1.42,1.27-2.98,2.38-4.63,3.34-2.23,1.29-4.64,2.28-7.19,2.94-2.29.59-4.71.91-7.19.91s-4.89-.32-7.19-.91c-2.55-.66-4.96-1.65-7.19-2.94-1.65-.96-3.21-2.08-4.63-3.34-.91-.79-1.77-1.65-2.56-2.56-1.27-1.42-2.38-2.98-3.34-4.63-1.29-2.23-2.28-4.64-2.94-7.19-.59-2.29-.91-4.71-.91-7.19V.5h57.5Z"/>
    <path class="cls-1" d="m870,.5v28.75c0,2.48-.32,4.89-.91,7.19-.66,2.55-1.65,4.96-2.94,7.19-.96,1.65-2.08,3.21-3.34,4.63-.79.91-1.65,1.77-2.56,2.56-1.42,1.27-2.98,2.38-4.63,3.34-2.23,1.29-4.64,2.28-7.19,2.94-2.29.59-4.71.91-7.19.91s-4.89-.32-7.19-.91c-2.55-.66-4.96-1.65-7.19-2.94-1.65-.96-3.21-2.08-4.63-3.34-.91-.79-1.77-1.65-2.56-2.56-1.27-1.42-2.38-2.98-3.34-4.63-1.29-2.23-2.28-4.64-2.94-7.19-.59-2.29-.91-4.71-.91-7.19V.5h57.5Z"/>
    <path class="cls-1" d="m928,.5v28.75c0,2.48-.32,4.89-.91,7.19-.66,2.55-1.65,4.96-2.94,7.19-.96,1.65-2.08,3.21-3.34,4.63-.79.91-1.65,1.77-2.56,2.56-1.42,1.27-2.98,2.38-4.63,3.34-2.23,1.29-4.64,2.28-7.19,2.94-2.29.59-4.71.91-7.19.91s-4.89-.32-7.19-.91c-2.55-.66-4.96-1.65-7.19-2.94-1.65-.96-3.21-2.08-4.63-3.34-.91-.79-1.77-1.65-2.56-2.56-1.27-1.42-2.38-2.98-3.34-4.63-1.29-2.23-2.28-4.64-2.94-7.19-.59-2.29-.91-4.71-.91-7.19V.5h57.5Z"/>
    <path class="cls-1" d="m986,.5v28.75c0,2.48-.32,4.89-.91,7.19-.66,2.55-1.65,4.96-2.94,7.19-.96,1.65-2.08,3.21-3.34,4.63-.79.91-1.65,1.77-2.56,2.56-1.42,1.27-2.98,2.38-4.63,3.34-2.23,1.29-4.64,2.28-7.19,2.94-2.29.59-4.71.91-7.19.91s-4.89-.32-7.19-.91c-2.55-.66-4.96-1.65-7.19-2.94-1.65-.96-3.21-2.08-4.63-3.34-.91-.79-1.77-1.65-2.56-2.56-1.27-1.42-2.38-2.98-3.34-4.63-1.29-2.23-2.28-4.64-2.94-7.19-.59-2.29-.91-4.71-.91-7.19V.5h57.5Z"/>
    <path class="cls-1" d="m1044,.5v28.75c0,2.48-.32,4.89-.91,7.19-.66,2.55-1.65,4.96-2.94,7.19-.96,1.65-2.08,3.21-3.34,4.63-.79.91-1.65,1.77-2.56,2.56-1.42,1.27-2.98,2.38-4.63,3.34-2.23,1.29-4.64,2.28-7.19,2.94-2.29.59-4.71.91-7.19.91s-4.89-.32-7.19-.91c-2.55-.66-4.96-1.65-7.19-2.94-1.65-.96-3.21-2.08-4.63-3.34-.91-.79-1.77-1.65-2.56-2.56-1.27-1.42-2.38-2.98-3.34-4.63-1.29-2.23-2.28-4.64-2.94-7.19-.59-2.29-.91-4.71-.91-7.19V.5h57.5Z"/>
    <path class="cls-1" d="m1102,.5v28.75c0,2.48-.32,4.89-.91,7.19-.66,2.55-1.65,4.96-2.94,7.19-.96,1.65-2.08,3.21-3.34,4.63-.79.91-1.65,1.77-2.56,2.56-1.42,1.27-2.98,2.38-4.63,3.34-2.23,1.29-4.64,2.28-7.19,2.94-2.29.59-4.71.91-7.19.91s-4.89-.32-7.19-.91c-2.55-.66-4.96-1.65-7.19-2.94-1.65-.96-3.21-2.08-4.63-3.34-.91-.79-1.77-1.65-2.56-2.56-1.27-1.42-2.38-2.98-3.34-4.63-1.29-2.23-2.28-4.64-2.94-7.19-.59-2.29-.91-4.71-.91-7.19V.5h57.5Z"/>
    <path class="cls-1" d="m1160,.5v28.75c0,2.48-.32,4.89-.91,7.19-.66,2.55-1.65,4.96-2.94,7.19-.96,1.65-2.08,3.21-3.34,4.63-.79.91-1.65,1.77-2.56,2.56-1.42,1.27-2.98,2.38-4.63,3.34-2.23,1.29-4.64,2.28-7.19,2.94-2.29.59-4.71.91-7.19.91s-4.89-.32-7.19-.91c-2.55-.66-4.96-1.65-7.19-2.94-1.65-.96-3.21-2.08-4.63-3.34-.91-.79-1.77-1.65-2.56-2.56-1.27-1.42-2.38-2.98-3.34-4.63-1.29-2.23-2.28-4.64-2.94-7.19-.59-2.29-.91-4.71-.91-7.19V.5h57.5Z"/>
    <path class="cls-1" d="m1218,.5v28.75c0,2.48-.32,4.89-.91,7.19-.66,2.55-1.65,4.96-2.94,7.19-.96,1.65-2.08,3.21-3.34,4.63-.79.91-1.65,1.77-2.56,2.56-1.42,1.27-2.98,2.38-4.63,3.34-2.23,1.29-4.64,2.28-7.19,2.94-2.29.59-4.71.91-7.19.91s-4.89-.32-7.19-.91c-2.55-.66-4.96-1.65-7.19-2.94-1.65-.96-3.21-2.08-4.63-3.34-.91-.79-1.77-1.65-2.56-2.56-1.27-1.42-2.38-2.98-3.34-4.63-1.29-2.23-2.28-4.64-2.94-7.19-.59-2.29-.91-4.71-.91-7.19V.5h57.5Z"/>
    <path class="cls-1" d="m1276,.5v28.75c0,2.48-.32,4.89-.91,7.19-.66,2.55-1.65,4.96-2.94,7.19-.96,1.65-2.08,3.21-3.34,4.63-.79.91-1.65,1.77-2.56,2.56-1.42,1.27-2.98,2.38-4.63,3.34-2.23,1.29-4.64,2.28-7.19,2.94-2.29.59-4.71.91-7.19.91s-4.89-.32-7.19-.91c-2.55-.66-4.96-1.65-7.19-2.94-1.65-.96-3.21-2.08-4.63-3.34-.91-.79-1.77-1.65-2.56-2.56-1.27-1.42-2.38-2.98-3.34-4.63-1.29-2.23-2.28-4.64-2.94-7.19-.59-2.29-.91-4.71-.91-7.19V.5h57.5Z"/>
    <path class="cls-1" d="m1334,.5v28.75c0,2.48-.32,4.89-.91,7.19-.66,2.55-1.65,4.96-2.94,7.19-.96,1.65-2.08,3.21-3.34,4.63-.79.91-1.65,1.77-2.56,2.56-1.42,1.27-2.98,2.38-4.63,3.34-2.23,1.29-4.64,2.28-7.19,2.94-2.29.59-4.71.91-7.19.91s-4.89-.32-7.19-.91c-2.55-.66-4.96-1.65-7.19-2.94-1.65-.96-3.21-2.08-4.63-3.34-.91-.79-1.77-1.65-2.56-2.56-1.27-1.42-2.38-2.98-3.34-4.63-1.29-2.23-2.28-4.64-2.94-7.19-.59-2.29-.91-4.71-.91-7.19V.5h57.5Z"/>
    <path class="cls-1" d="m1392,.5v28.75c0,2.48-.32,4.89-.91,7.19-.66,2.55-1.65,4.96-2.94,7.19-.96,1.65-2.08,3.21-3.34,4.63-.79.91-1.65,1.77-2.56,2.56-1.42,1.27-2.98,2.38-4.63,3.34-2.23,1.29-4.64,2.28-7.19,2.94-2.29.59-4.71.91-7.19.91s-4.89-.32-7.19-.91c-2.55-.66-4.96-1.65-7.19-2.94-1.65-.96-3.21-2.08-4.63-3.34-.91-.79-1.77-1.65-2.56-2.56-1.27-1.42-2.38-2.98-3.34-4.63-1.29-2.23-2.28-4.64-2.94-7.19-.59-2.29-.91-4.71-.91-7.19V.5h57.5Z"/>
    <path class="cls-1" d="m1450,.5v28.75c0,2.48-.32,4.89-.91,7.19-.66,2.55-1.65,4.96-2.94,7.19-.96,1.65-2.08,3.21-3.34,4.63-.79.91-1.65,1.77-2.56,2.56-1.42,1.27-2.98,2.38-4.63,3.34-2.23,1.29-4.64,2.28-7.19,2.94-2.29.59-4.71.91-7.19.91s-4.89-.32-7.19-.91c-2.55-.66-4.96-1.65-7.19-2.94-1.65-.96-3.21-2.08-4.63-3.34-.91-.79-1.77-1.65-2.56-2.56-1.27-1.42-2.38-2.98-3.34-4.63-1.29-2.23-2.28-4.64-2.94-7.19-.59-2.29-.91-4.71-.91-7.19V.5h57.5Z"/>
    <path class="cls-1" d="m1508,.5v28.75c0,2.48-.32,4.89-.91,7.19-.66,2.55-1.65,4.96-2.94,7.19-.96,1.65-2.08,3.21-3.34,4.63-.79.91-1.65,1.77-2.56,2.56-1.42,1.27-2.98,2.38-4.63,3.34-2.23,1.29-4.64,2.28-7.19,2.94-2.29.59-4.71.91-7.19.91s-4.89-.32-7.19-.91c-2.55-.66-4.96-1.65-7.19-2.94-1.65-.96-3.21-2.08-4.63-3.34-.91-.79-1.77-1.65-2.56-2.56-1.27-1.42-2.38-2.98-3.34-4.63-1.29-2.23-2.28-4.64-2.94-7.19-.59-2.29-.91-4.71-.91-7.19V.5h57.5Z"/>
    <path class="cls-1" d="m1566,.5v28.75c0,2.48-.32,4.89-.91,7.19-.66,2.55-1.65,4.96-2.94,7.19-.96,1.65-2.08,3.21-3.34,4.63-.79.91-1.65,1.77-2.56,2.56-1.42,1.27-2.98,2.38-4.63,3.34-2.23,1.29-4.64,2.28-7.19,2.94-2.29.59-4.71.91-7.19.91s-4.89-.32-7.19-.91c-2.55-.66-4.96-1.65-7.19-2.94-1.65-.96-3.21-2.08-4.63-3.34-.91-.79-1.77-1.65-2.56-2.56-1.27-1.42-2.38-2.98-3.34-4.63-1.29-2.23-2.28-4.64-2.94-7.19-.59-2.29-.91-4.71-.91-7.19V.5h57.5Z"/>
    <path class="cls-1" d="m1624,.5v28.75c0,2.48-.32,4.89-.91,7.19-.66,2.55-1.65,4.96-2.94,7.19-.96,1.65-2.08,3.21-3.34,4.63-.79.91-1.65,1.77-2.56,2.56-1.42,1.27-2.98,2.38-4.63,3.34-2.23,1.29-4.64,2.28-7.19,2.94-2.29.59-4.71.91-7.19.91s-4.89-.32-7.19-.91c-2.55-.66-4.96-1.65-7.19-2.94-1.65-.96-3.21-2.08-4.63-3.34-.91-.79-1.77-1.65-2.56-2.56-1.27-1.42-2.38-2.98-3.34-4.63-1.29-2.23-2.28-4.64-2.94-7.19-.59-2.29-.91-4.71-.91-7.19V.5h57.5Z"/>
    <path class="cls-1" d="m1682,.5v28.75c0,2.48-.32,4.89-.91,7.19-.66,2.55-1.65,4.96-2.94,7.19-.96,1.65-2.08,3.21-3.34,4.63-.79.91-1.65,1.77-2.56,2.56-1.42,1.27-2.98,2.38-4.63,3.34-2.23,1.29-4.64,2.28-7.19,2.94-2.29.59-4.71.91-7.19.91s-4.89-.32-7.19-.91c-2.55-.66-4.96-1.65-7.19-2.94-1.65-.96-3.21-2.08-4.63-3.34-.91-.79-1.77-1.65-2.56-2.56-1.27-1.42-2.38-2.98-3.34-4.63-1.29-2.23-2.28-4.64-2.94-7.19-.59-2.29-.91-4.71-.91-7.19V.5h57.5Z"/>
    <path class="cls-1" d="m1740,.5v28.75c0,2.48-.32,4.89-.91,7.19-.66,2.55-1.65,4.96-2.94,7.19-.96,1.65-2.08,3.21-3.34,4.63-.79.91-1.65,1.77-2.56,2.56-1.42,1.27-2.98,2.38-4.63,3.34-2.23,1.29-4.64,2.28-7.19,2.94-2.29.59-4.71.91-7.19.91s-4.89-.32-7.19-.91c-2.55-.66-4.96-1.65-7.19-2.94-1.65-.96-3.21-2.08-4.63-3.34-.91-.79-1.77-1.65-2.56-2.56-1.27-1.42-2.38-2.98-3.34-4.63-1.29-2.23-2.28-4.64-2.94-7.19-.59-2.29-.91-4.71-.91-7.19V.5h57.5Z"/>
    <path class="cls-1" d="m1798,.5v28.75c0,2.48-.32,4.89-.91,7.19-.66,2.55-1.65,4.96-2.94,7.19-.96,1.65-2.08,3.21-3.34,4.63-.79.91-1.65,1.77-2.56,2.56-1.42,1.27-2.98,2.38-4.63,3.34-2.23,1.29-4.64,2.28-7.19,2.94-2.29.59-4.71.91-7.19.91s-4.89-.32-7.19-.91c-2.55-.66-4.96-1.65-7.19-2.94-1.65-.96-3.21-2.08-4.63-3.34-.91-.79-1.77-1.65-2.56-2.56-1.27-1.42-2.38-2.98-3.34-4.63-1.29-2.23-2.28-4.64-2.94-7.19-.59-2.29-.91-4.71-.91-7.19V.5h57.5Z"/>
    <path class="cls-1" d="m1856,.5v28.75c0,2.48-.32,4.89-.91,7.19-.66,2.55-1.65,4.96-2.94,7.19-.96,1.65-2.08,3.21-3.34,4.63-.79.91-1.65,1.77-2.56,2.56-1.42,1.27-2.98,2.38-4.63,3.34-2.23,1.29-4.64,2.28-7.19,2.94-2.29.59-4.71.91-7.19.91s-4.89-.32-7.19-.91c-2.55-.66-4.96-1.65-7.19-2.94-1.65-.96-3.21-2.08-4.63-3.34-.91-.79-1.77-1.65-2.56-2.56-1.27-1.42-2.38-2.98-3.34-4.63-1.29-2.23-2.28-4.64-2.94-7.19-.59-2.29-.91-4.71-.91-7.19V.5h57.5Z"/>
    <path class="cls-1" d="m1914,.5v28.75c0,2.48-.32,4.89-.91,7.19-.66,2.55-1.65,4.96-2.94,7.19-.96,1.65-2.08,3.21-3.34,4.63-.79.91-1.65,1.77-2.56,2.56-1.42,1.27-2.98,2.38-4.63,3.34-2.23,1.29-4.64,2.28-7.19,2.94-2.29.59-4.71.91-7.19.91s-4.89-.32-7.19-.91c-2.55-.66-4.96-1.65-7.19-2.94-1.65-.96-3.21-2.08-4.63-3.34-.91-.79-1.77-1.65-2.56-2.56-1.27-1.42-2.38-2.98-3.34-4.63-1.29-2.23-2.28-4.64-2.94-7.19-.59-2.29-.91-4.71-.91-7.19V.5h57.5Z"/>
  </g>
</svg>