<?xml version="1.0" encoding="UTF-8"?>
<svg id="Capa_2" data-name="Capa 2" xmlns="http://www.w3.org/2000/svg" viewBox="0 0 1944 108">
  <defs>
    <style>
      .cls-1 {
        fill: none;
      }

      .cls-1, .cls-2 {
        stroke-width: 0px;
      }

      .cls-2 {
        fill: #4d535b;
      }
    </style>
  </defs>
  <g id="Capa_1-2" data-name="Capa 1">
    <g>
      <polygon class="cls-1" points="27 0 0 0 0 27 0 54 27 54 54 54 54 27 54 0 27 0"/>
      <polygon class="cls-2" points="0 54 0 27 27 0 54 27 54 54 27 27 0 54"/>
      <polygon class="cls-1" points="81 0 54 0 54 27 54 54 81 54 108 54 108 27 108 0 81 0"/>
      <polygon class="cls-2" points="54 54 54 27 81 0 108 27 108 54 81 27 54 54"/>
      <polygon class="cls-1" points="135 0 108 0 108 27 108 54 135 54 162 54 162 27 162 0 135 0"/>
      <polygon class="cls-2" points="108 54 108 27 135 0 162 27 162 54 135 27 108 54"/>
      <polygon class="cls-1" points="189 0 162 0 162 27 162 54 189 54 216 54 216 27 216 0 189 0"/>
      <polygon class="cls-2" points="162 54 162 27 189 0 216 27 216 54 189 27 162 54"/>
      <polygon class="cls-1" points="243 0 216 0 216 27 216 54 243 54 270 54 270 27 270 0 243 0"/>
      <polygon class="cls-2" points="216 54 216 27 243 0 270 27 270 54 243 27 216 54"/>
      <polygon class="cls-1" points="297 0 270 0 270 27 270 54 297 54 324 54 324 27 324 0 297 0"/>
      <polygon class="cls-2" points="270 54 270 27 297 0 324 27 324 54 297 27 270 54"/>
      <polygon class="cls-1" points="351 0 324 0 324 27 324 54 351 54 378 54 378 27 378 0 351 0"/>
      <polygon class="cls-2" points="324 54 324 27 351 0 378 27 378 54 351 27 324 54"/>
      <polygon class="cls-1" points="405 0 378 0 378 27 378 54 405 54 432 54 432 27 432 0 405 0"/>
      <polygon class="cls-2" points="378 54 378 27 405 0 432 27 432 54 405 27 378 54"/>
      <polygon class="cls-1" points="459 0 432 0 432 27 432 54 459 54 486 54 486 27 486 0 459 0"/>
      <polygon class="cls-2" points="432 54 432 27 459 0 486 27 486 54 459 27 432 54"/>
      <polygon class="cls-1" points="513 0 486 0 486 27 486 54 513 54 540 54 540 27 540 0 513 0"/>
      <polygon class="cls-2" points="486 54 486 27 513 0 540 27 540 54 513 27 486 54"/>
      <polygon class="cls-1" points="567 0 540 0 540 27 540 54 567 54 594 54 594 27 594 0 567 0"/>
      <polygon class="cls-2" points="540 54 540 27 567 0 594 27 594 54 567 27 540 54"/>
      <polygon class="cls-1" points="621 0 594 0 594 27 594 54 621 54 648 54 648 27 648 0 621 0"/>
      <polygon class="cls-2" points="594 54 594 27 621 0 648 27 648 54 621 27 594 54"/>
      <polygon class="cls-1" points="675 0 648 0 648 27 648 54 675 54 702 54 702 27 702 0 675 0"/>
      <polygon class="cls-2" points="648 54 648 27 675 0 702 27 702 54 675 27 648 54"/>
      <polygon class="cls-1" points="729 0 702 0 702 27 702 54 729 54 756 54 756 27 756 0 729 0"/>
      <polygon class="cls-2" points="702 54 702 27 729 0 756 27 756 54 729 27 702 54"/>
      <polygon class="cls-1" points="783 0 756 0 756 27 756 54 783 54 810 54 810 27 810 0 783 0"/>
      <polygon class="cls-2" points="756 54 756 27 783 0 810 27 810 54 783 27 756 54"/>
      <polygon class="cls-1" points="837 0 810 0 810 27 810 54 837 54 864 54 864 27 864 0 837 0"/>
      <polygon class="cls-2" points="810 54 810 27 837 0 864 27 864 54 837 27 810 54"/>
      <polygon class="cls-1" points="891 0 864 0 864 27 864 54 891 54 918 54 918 27 918 0 891 0"/>
      <polygon class="cls-2" points="864 54 864 27 891 0 918 27 918 54 891 27 864 54"/>
      <polygon class="cls-1" points="945 0 918 0 918 27 918 54 945 54 972 54 972 27 972 0 945 0"/>
      <polygon class="cls-2" points="918 54 918 27 945 0 972 27 972 54 945 27 918 54"/>
      <polygon class="cls-1" points="999 0 972 0 972 27 972 54 999 54 1026 54 1026 27 1026 0 999 0"/>
      <polygon class="cls-2" points="972 54 972 27 999 0 1026 27 1026 54 999 27 972 54"/>
      <polygon class="cls-1" points="1053 0 1026 0 1026 27 1026 54 1053 54 1080 54 1080 27 1080 0 1053 0"/>
      <polygon class="cls-2" points="1026 54 1026 27 1053 0 1080 27 1080 54 1053 27 1026 54"/>
      <polygon class="cls-1" points="1107 0 1080 0 1080 27 1080 54 1107 54 1134 54 1134 27 1134 0 1107 0"/>
      <polygon class="cls-2" points="1080 54 1080 27 1107 0 1134 27 1134 54 1107 27 1080 54"/>
      <polygon class="cls-1" points="1161 0 1134 0 1134 27 1134 54 1161 54 1188 54 1188 27 1188 0 1161 0"/>
      <polygon class="cls-2" points="1134 54 1134 27 1161 0 1188 27 1188 54 1161 27 1134 54"/>
      <polygon class="cls-1" points="1215 0 1188 0 1188 27 1188 54 1215 54 1242 54 1242 27 1242 0 1215 0"/>
      <polygon class="cls-2" points="1188 54 1188 27 1215 0 1242 27 1242 54 1215 27 1188 54"/>
      <polygon class="cls-1" points="1269 0 1242 0 1242 27 1242 54 1269 54 1296 54 1296 27 1296 0 1269 0"/>
      <polygon class="cls-2" points="1242 54 1242 27 1269 0 1296 27 1296 54 1269 27 1242 54"/>
      <polygon class="cls-1" points="1323 0 1296 0 1296 27 1296 54 1323 54 1350 54 1350 27 1350 0 1323 0"/>
      <polygon class="cls-2" points="1296 54 1296 27 1323 0 1350 27 1350 54 1323 27 1296 54"/>
      <polygon class="cls-1" points="1377 0 1350 0 1350 27 1350 54 1377 54 1404 54 1404 27 1404 0 1377 0"/>
      <polygon class="cls-2" points="1350 54 1350 27 1377 0 1404 27 1404 54 1377 27 1350 54"/>
      <polygon class="cls-1" points="1431 0 1404 0 1404 27 1404 54 1431 54 1458 54 1458 27 1458 0 1431 0"/>
      <polygon class="cls-2" points="1404 54 1404 27 1431 0 1458 27 1458 54 1431 27 1404 54"/>
      <polygon class="cls-1" points="1485 0 1458 0 1458 27 1458 54 1485 54 1512 54 1512 27 1512 0 1485 0"/>
      <polygon class="cls-2" points="1458 54 1458 27 1485 0 1512 27 1512 54 1485 27 1458 54"/>
      <polygon class="cls-1" points="1539 0 1512 0 1512 27 1512 54 1539 54 1566 54 1566 27 1566 0 1539 0"/>
      <polygon class="cls-2" points="1512 54 1512 27 1539 0 1566 27 1566 54 1539 27 1512 54"/>
      <polygon class="cls-1" points="1593 0 1566 0 1566 27 1566 54 1593 54 1620 54 1620 27 1620 0 1593 0"/>
      <polygon class="cls-2" points="1566 54 1566 27 1593 0 1620 27 1620 54 1593 27 1566 54"/>
      <polygon class="cls-1" points="1647 0 1620 0 1620 27 1620 54 1647 54 1674 54 1674 27 1674 0 1647 0"/>
      <polygon class="cls-2" points="1620 54 1620 27 1647 0 1674 27 1674 54 1647 27 1620 54"/>
      <polygon class="cls-1" points="1701 0 1674 0 1674 27 1674 54 1701 54 1728 54 1728 27 1728 0 1701 0"/>
      <polygon class="cls-2" points="1674 54 1674 27 1701 0 1728 27 1728 54 1701 27 1674 54"/>
      <polygon class="cls-1" points="1755 0 1728 0 1728 27 1728 54 1755 54 1782 54 1782 27 1782 0 1755 0"/>
      <polygon class="cls-2" points="1728 54 1728 27 1755 0 1782 27 1782 54 1755 27 1728 54"/>
      <polygon class="cls-1" points="1809 0 1782 0 1782 27 1782 54 1809 54 1836 54 1836 27 1836 0 1809 0"/>
      <polygon class="cls-2" points="1782 54 1782 27 1809 0 1836 27 1836 54 1809 27 1782 54"/>
      <polygon class="cls-1" points="1863 0 1836 0 1836 27 1836 54 1863 54 1890 54 1890 27 1890 0 1863 0"/>
      <polygon class="cls-2" points="1836 54 1836 27 1863 0 1890 27 1890 54 1863 27 1836 54"/>
      <polygon class="cls-1" points="1917 0 1890 0 1890 27 1890 54 1917 54 1944 54 1944 27 1944 0 1917 0"/>
      <polygon class="cls-2" points="1890 54 1890 27 1917 0 1944 27 1944 54 1917 27 1890 54"/>
      <polygon class="cls-1" points="27 54 0 54 0 81 0 108 27 108 54 108 54 81 54 54 27 54"/>
      <polygon class="cls-2" points="0 108 0 81 27 54 54 81 54 108 27 81 0 108"/>
      <polygon class="cls-1" points="81 54 54 54 54 81 54 108 81 108 108 108 108 81 108 54 81 54"/>
      <polygon class="cls-2" points="54 108 54 81 81 54 108 81 108 108 81 81 54 108"/>
      <polygon class="cls-1" points="135 54 108 54 108 81 108 108 135 108 162 108 162 81 162 54 135 54"/>
      <polygon class="cls-2" points="108 108 108 81 135 54 162 81 162 108 135 81 108 108"/>
      <polygon class="cls-1" points="189 54 162 54 162 81 162 108 189 108 216 108 216 81 216 54 189 54"/>
      <polygon class="cls-2" points="162 108 162 81 189 54 216 81 216 108 189 81 162 108"/>
      <polygon class="cls-1" points="243 54 216 54 216 81 216 108 243 108 270 108 270 81 270 54 243 54"/>
      <polygon class="cls-2" points="216 108 216 81 243 54 270 81 270 108 243 81 216 108"/>
      <polygon class="cls-1" points="297 54 270 54 270 81 270 108 297 108 324 108 324 81 324 54 297 54"/>
      <polygon class="cls-2" points="270 108 270 81 297 54 324 81 324 108 297 81 270 108"/>
      <polygon class="cls-1" points="351 54 324 54 324 81 324 108 351 108 378 108 378 81 378 54 351 54"/>
      <polygon class="cls-2" points="324 108 324 81 351 54 378 81 378 108 351 81 324 108"/>
      <polygon class="cls-1" points="405 54 378 54 378 81 378 108 405 108 432 108 432 81 432 54 405 54"/>
      <polygon class="cls-2" points="378 108 378 81 405 54 432 81 432 108 405 81 378 108"/>
      <polygon class="cls-1" points="459 54 432 54 432 81 432 108 459 108 486 108 486 81 486 54 459 54"/>
      <polygon class="cls-2" points="432 108 432 81 459 54 486 81 486 108 459 81 432 108"/>
      <polygon class="cls-1" points="513 54 486 54 486 81 486 108 513 108 540 108 540 81 540 54 513 54"/>
      <polygon class="cls-2" points="486 108 486 81 513 54 540 81 540 108 513 81 486 108"/>
      <polygon class="cls-1" points="567 54 540 54 540 81 540 108 567 108 594 108 594 81 594 54 567 54"/>
      <polygon class="cls-2" points="540 108 540 81 567 54 594 81 594 108 567 81 540 108"/>
      <polygon class="cls-1" points="621 54 594 54 594 81 594 108 621 108 648 108 648 81 648 54 621 54"/>
      <polygon class="cls-2" points="594 108 594 81 621 54 648 81 648 108 621 81 594 108"/>
      <polygon class="cls-1" points="675 54 648 54 648 81 648 108 675 108 702 108 702 81 702 54 675 54"/>
      <polygon class="cls-2" points="648 108 648 81 675 54 702 81 702 108 675 81 648 108"/>
      <polygon class="cls-1" points="729 54 702 54 702 81 702 108 729 108 756 108 756 81 756 54 729 54"/>
      <polygon class="cls-2" points="702 108 702 81 729 54 756 81 756 108 729 81 702 108"/>
      <polygon class="cls-1" points="783 54 756 54 756 81 756 108 783 108 810 108 810 81 810 54 783 54"/>
      <polygon class="cls-2" points="756 108 756 81 783 54 810 81 810 108 783 81 756 108"/>
      <polygon class="cls-1" points="837 54 810 54 810 81 810 108 837 108 864 108 864 81 864 54 837 54"/>
      <polygon class="cls-2" points="810 108 810 81 837 54 864 81 864 108 837 81 810 108"/>
      <polygon class="cls-1" points="891 54 864 54 864 81 864 108 891 108 918 108 918 81 918 54 891 54"/>
      <polygon class="cls-2" points="864 108 864 81 891 54 918 81 918 108 891 81 864 108"/>
      <polygon class="cls-1" points="945 54 918 54 918 81 918 108 945 108 972 108 972 81 972 54 945 54"/>
      <polygon class="cls-2" points="918 108 918 81 945 54 972 81 972 108 945 81 918 108"/>
      <polygon class="cls-1" points="999 54 972 54 972 81 972 108 999 108 1026 108 1026 81 1026 54 999 54"/>
      <polygon class="cls-2" points="972 108 972 81 999 54 1026 81 1026 108 999 81 972 108"/>
      <polygon class="cls-1" points="1053 54 1026 54 1026 81 1026 108 1053 108 1080 108 1080 81 1080 54 1053 54"/>
      <polygon class="cls-2" points="1026 108 1026 81 1053 54 1080 81 1080 108 1053 81 1026 108"/>
      <polygon class="cls-1" points="1107 54 1080 54 1080 81 1080 108 1107 108 1134 108 1134 81 1134 54 1107 54"/>
      <polygon class="cls-2" points="1080 108 1080 81 1107 54 1134 81 1134 108 1107 81 1080 108"/>
      <polygon class="cls-1" points="1161 54 1134 54 1134 81 1134 108 1161 108 1188 108 1188 81 1188 54 1161 54"/>
      <polygon class="cls-2" points="1134 108 1134 81 1161 54 1188 81 1188 108 1161 81 1134 108"/>
      <polygon class="cls-1" points="1215 54 1188 54 1188 81 1188 108 1215 108 1242 108 1242 81 1242 54 1215 54"/>
      <polygon class="cls-2" points="1188 108 1188 81 1215 54 1242 81 1242 108 1215 81 1188 108"/>
      <polygon class="cls-1" points="1269 54 1242 54 1242 81 1242 108 1269 108 1296 108 1296 81 1296 54 1269 54"/>
      <polygon class="cls-2" points="1242 108 1242 81 1269 54 1296 81 1296 108 1269 81 1242 108"/>
      <polygon class="cls-1" points="1323 54 1296 54 1296 81 1296 108 1323 108 1350 108 1350 81 1350 54 1323 54"/>
      <polygon class="cls-2" points="1296 108 1296 81 1323 54 1350 81 1350 108 1323 81 1296 108"/>
      <polygon class="cls-1" points="1377 54 1350 54 1350 81 1350 108 1377 108 1404 108 1404 81 1404 54 1377 54"/>
      <polygon class="cls-2" points="1350 108 1350 81 1377 54 1404 81 1404 108 1377 81 1350 108"/>
      <polygon class="cls-1" points="1431 54 1404 54 1404 81 1404 108 1431 108 1458 108 1458 81 1458 54 1431 54"/>
      <polygon class="cls-2" points="1404 108 1404 81 1431 54 1458 81 1458 108 1431 81 1404 108"/>
      <polygon class="cls-1" points="1485 54 1458 54 1458 81 1458 108 1485 108 1512 108 1512 81 1512 54 1485 54"/>
      <polygon class="cls-2" points="1458 108 1458 81 1485 54 1512 81 1512 108 1485 81 1458 108"/>
      <polygon class="cls-1" points="1539 54 1512 54 1512 81 1512 108 1539 108 1566 108 1566 81 1566 54 1539 54"/>
      <polygon class="cls-2" points="1512 108 1512 81 1539 54 1566 81 1566 108 1539 81 1512 108"/>
      <polygon class="cls-1" points="1593 54 1566 54 1566 81 1566 108 1593 108 1620 108 1620 81 1620 54 1593 54"/>
      <polygon class="cls-2" points="1566 108 1566 81 1593 54 1620 81 1620 108 1593 81 1566 108"/>
      <polygon class="cls-1" points="1647 54 1620 54 1620 81 1620 108 1647 108 1674 108 1674 81 1674 54 1647 54"/>
      <polygon class="cls-2" points="1620 108 1620 81 1647 54 1674 81 1674 108 1647 81 1620 108"/>
      <polygon class="cls-1" points="1701 54 1674 54 1674 81 1674 108 1701 108 1728 108 1728 81 1728 54 1701 54"/>
      <polygon class="cls-2" points="1674 108 1674 81 1701 54 1728 81 1728 108 1701 81 1674 108"/>
      <polygon class="cls-1" points="1755 54 1728 54 1728 81 1728 108 1755 108 1782 108 1782 81 1782 54 1755 54"/>
      <polygon class="cls-2" points="1728 108 1728 81 1755 54 1782 81 1782 108 1755 81 1728 108"/>
      <polygon class="cls-1" points="1809 54 1782 54 1782 81 1782 108 1809 108 1836 108 1836 81 1836 54 1809 54"/>
      <polygon class="cls-2" points="1782 108 1782 81 1809 54 1836 81 1836 108 1809 81 1782 108"/>
      <polygon class="cls-1" points="1863 54 1836 54 1836 81 1836 108 1863 108 1890 108 1890 81 1890 54 1863 54"/>
      <polygon class="cls-2" points="1836 108 1836 81 1863 54 1890 81 1890 108 1863 81 1836 108"/>
      <polygon class="cls-1" points="1917 54 1890 54 1890 81 1890 108 1917 108 1944 108 1944 81 1944 54 1917 54"/>
      <polygon class="cls-2" points="1890 108 1890 81 1917 54 1944 81 1944 108 1917 81 1890 108"/>
    </g>
  </g>
</svg>