<?xml version="1.0" encoding="UTF-8"?>
<svg id="Capa_2" data-name="Capa 2" xmlns="http://www.w3.org/2000/svg" viewBox="0 0 1833.8 168.06">
  <defs>
    <style>
      .cls-1 {
        fill: none;
        stroke: #717272;
        stroke-width: .13px;
      }
    </style>
  </defs>
  <g id="Capa_2-2" data-name="Capa 2">
    <g id="Capa_1-2" data-name="Capa 1-2">
      <path class="cls-1" d="m1833.8,84H0m1833.8,84H0M79.55,0v167.75M159.73,0v167.75M238.64,0v167.75M318.82,0v167.75M399,0v167.75M477.91,0v167.75M558.09,0v167.75M638.27,0v167.75M717.18,0v167.75M797.36,0v167.75M877.55,0v167.75M956.45,0v167.75M1036.64,0v167.75M1115.55,0v167.75M1195.73,0v167.75M1275.91,0v167.75M1354.82,0v167.75M1435,0v167.75M1515.18,0v167.75M1594.09,0v167.75M1674.27,0v167.75M1754.45,0v167.75"/>
    </g>
  </g>
</svg>