<svg width="1441" height="133" viewBox="0 0 1441 133" fill="none" xmlns="http://www.w3.org/2000/svg">
<path d="M1440.84 66H0M1440.84 132H0M62.5 0L62.4999 131.8M125.5 0L125.5 131.8M187.5 0L187.5 131.8M250.5 0L250.5 131.8M313.5 0L313.5 131.8M375.5 0L375.5 131.8M438.5 0L438.5 131.8M501.5 0L501.5 131.8M563.5 0L563.5 131.8M626.5 0L626.5 131.8M689.5 0L689.5 131.8M751.5 0L751.5 131.8M814.5 0L814.5 131.8M876.5 0L876.5 131.8M939.5 0L939.5 131.8M1002.5 0L1002.5 131.8M1064.5 0L1064.5 131.8M1127.5 0L1127.5 131.8M1190.5 0L1190.5 131.8M1252.5 0L1252.5 131.8M1315.5 0L1315.5 131.8M1378.5 0L1378.5 131.8" stroke="#313131"/>
</svg>
