<?xml version="1.0" encoding="UTF-8"?>
<svg id="Capa_2" data-name="Capa 2" xmlns="http://www.w3.org/2000/svg" viewBox="0 0 1440.84 132.05">
  <defs>
    <style>
      .cls-1 {
        fill: none;
        stroke: #575b60;
        stroke-width: .1px;
      }
    </style>
  </defs>
  <g id="Capa_1-2" data-name="Capa 1">
    <path class="cls-1" d="m1440.84,66H0m1440.84,66H0M62.5,0v131.8M125.5,0v131.8M187.5,0v131.8M250.5,0v131.8M313.5,0v131.8M375.5,0v131.8M438.5,0v131.8M501.5,0v131.8M563.5,0v131.8M626.5,0v131.8M689.5,0v131.8M751.5,0v131.8M814.5,0v131.8M876.5,0v131.8M939.5,0v131.8M1002.5,0v131.8M1064.5,0v131.8M1127.5,0v131.8M1190.5,0v131.8M1252.5,0v131.8M1315.5,0v131.8M1378.5,0v131.8"/>
  </g>
</svg>