<?xml version="1.0" encoding="UTF-8"?>
<svg id="Capa_2" data-name="Capa 2" xmlns="http://www.w3.org/2000/svg" viewBox="0 0 140.15 127.16">
  <defs>
    <style>
      .cls-1 {
        stroke: #f6f4f3;
        stroke-linecap: round;
        stroke-miterlimit: 10;
        stroke-width: 2.78px;
      }

      .cls-1, .cls-2 {
        fill: #f6f4f3;
      }

      .cls-3 {
        fill: #2f3640;
      }
    </style>
  </defs>
  <g id="Capa_19" data-name="Capa 19">
    <g id="logo">
      <g id="figura">
        <path class="cls-1" d="m44.25,110.8l-26.41,13.46v-36.41l-15.87-15.87,16.19-16.19V2.81c0-1.03,1.07-1.7,2-1.25l48.72,23.52c.38.18.82.18,1.2,0L119.86,1.53c.92-.44,1.98.23,1.99,1.25l.16,52.26,16.19,16.93-15.87,15.87v36.99l-26.32-14.04v-4.29s19.93,0,19.93,0l-.04-20.47,14.4-13.79-14.55-14.55V12.64c0-1.03-1.09-1.71-2.01-1.25l-43.67,21.71c-.39.19-.84.19-1.23,0L26.13,12.12c-.92-.45-2,.22-2,1.25v45.4l-13.27,13.27,13.32,13.32v21.15h20.07v4.29Z"/>
        <g id="cabeza">
          <polygon id="cabeza-2" data-name="cabeza" class="cls-2" points="111.77 54.38 105.49 54.38 105.49 34.58 34.99 34.58 34.99 54.38 28.4 54.38 28.4 85.26 34.99 85.26 34.99 105.07 105.49 105.07 105.49 85.26 111.77 85.26 111.77 54.38"/>
          <circle id="ojo_der" data-name="ojo der" class="cls-3" cx="56.19" cy="68.43" r="10.39"/>
          <circle id="ojo_izq" data-name="ojo izq" class="cls-3" cx="84.44" cy="69.82" r="7.88"/>
          <rect id="boca" class="cls-3" x="46.84" y="90.56" width="45.48" height="5.95"/>
        </g>
      </g>
    </g>
  </g>
</svg>