<?xml version="1.0" encoding="UTF-8"?>
<svg id="Capa_2" data-name="Capa 2" xmlns="http://www.w3.org/2000/svg" viewBox="0 0 310.98 127.16">
  <defs>
    <style>
      .cls-1, .cls-2 {
        fill: #2f3640;
      }

      .cls-3 {
        fill: #f6f4f3;
      }

      .cls-2 {
        stroke: #2f3640;
        stroke-linecap: round;
        stroke-miterlimit: 10;
        stroke-width: 2.78px;
      }
    </style>
  </defs>
  <g id="Capa_16" data-name="Capa 16">
    <g id="logo">
      <g id="figura">
        <g id="figura-2" data-name="figura">
          <path class="cls-2" d="m44.25,110.8l-26.41,13.46v-36.41l-15.87-15.87,16.19-16.19V2.81c0-1.03,1.07-1.7,2-1.25l48.72,23.52c.38.18.82.18,1.2,0L119.86,1.53c.92-.44,1.98.23,1.99,1.25l.16,52.26,16.19,16.93-15.87,15.87v36.99l-26.32-14.04v-4.29s19.93,0,19.93,0l-.04-20.47,14.4-13.79-14.55-14.55V12.64c0-1.03-1.09-1.71-2.01-1.25l-43.67,21.71c-.39.19-.84.19-1.23,0L26.13,12.12c-.92-.45-2,.22-2,1.25v45.4l-13.27,13.27,13.32,13.32v21.15h20.07v4.29Z"/>
          <g id="cabeza">
            <polygon id="cabeza-2" data-name="cabeza" class="cls-1" points="111.77 54.38 105.49 54.38 105.49 34.58 34.99 34.58 34.99 54.38 28.4 54.38 28.4 85.26 34.99 85.26 34.99 105.07 105.49 105.07 105.49 85.26 111.77 85.26 111.77 54.38"/>
            <circle id="ojo_der" data-name="ojo der" class="cls-3" cx="56.19" cy="68.43" r="10.39"/>
            <circle id="ojo_izq" data-name="ojo izq" class="cls-3" cx="84.44" cy="69.82" r="7.88"/>
            <rect id="boca" class="cls-3" x="46.84" y="90.56" width="45.48" height="5.95"/>
          </g>
        </g>
      </g>
      <g id="texto">
        <g id="titulo">
          <path class="cls-1" d="m165.34,82.39l-.33-2.69h-2.42l-.66-5.77-1.87,6.98h-2.2l-.72-2.75h-2.03l-1.37-5.22-1.21,9.46h-7.04l.33-2.69h-3.13l5.39-44.05h2.97l.71,2.69h1.98l3.41,12.81,4.29-15.51h2.91l.33,2.69h2.42l5.28,44.05h-7.04Zm-1.54-46.19h-1.98l-5.66,21.01-5.61-21.01h-1.98l-5.28,42.95h6.1l2.2-16.88,3.96,15.34h1.32l4.12-15.23,2.03,16.77h6.05l-5.28-42.95Z"/>
          <path class="cls-1" d="m183.99,65.23v7.31h2.86v2.75h2.75v7.09h-12.65v-2.69h-2.8v-17.16h-1.76v-7.04h1.76v-19.85h11.55l.6,2.69h2.2l1.48,7.15h-5.99v10.01h3.52v2.75h2.69v6.98h-6.21Zm2.91-9.24h-6.16v-13.8h5.88l-1.32-5.99h-10.56v19.8h-1.87v6h1.87v17.16h11.55v-5.99h-5.55v-11.16h6.16v-6Z"/>
          <path class="cls-1" d="m200.87,82.39h-7.92v-2.8h-2.75v-43.94h7.92c3.24,0,5.77,1.48,7.59,4.12,6.05,3.3,6.49,14.74,6.49,20.62,0,7.53-.82,22-11.33,22Zm-2.75-46.19h-7.37v42.89h7.37c10.06,0,10.78-14.3,10.78-21.45s-.71-21.45-10.78-21.45Zm0,36.96h-1.38v-30.96h1.38c4.45,0,4.78,12.21,4.78,15.45s-.33,15.51-4.78,15.51Zm2.58-27.66h-.66v25.79c2.14-3.24,2.31-9.84,2.31-13.64s-.22-8.69-1.65-12.15Z"/>
          <path class="cls-1" d="m214.95,82.39v-2.69h-2.75v-44.05h7.04v2.69h2.75v44.05h-7.04Zm3.74-46.19h-5.99v42.95h5.99v-42.95Z"/>
          <path class="cls-1" d="m241.02,82.39l-.6-2.69h-2.2l-.11-.66h-3.85l-.66,3.35h-7.26l.6-2.69h-3.3l.66-3.46h-2.31l1.43-7.04h2.42l7.04-33.54h3.3l.6,2.69h2.15l9.24,44.05h-7.15Zm-5.22-46.19h-2.53l-6.98,33.6h-2.36l-1.27,5.99h2.36l-.71,3.35h6.05l.77-3.35h6.93l.66,3.35h6.05l-8.96-42.95Zm-3.46,33.6l2.2-10.83,2.25,10.83h-4.45Z"/>
          <path class="cls-1" d="m269.9,70.13c0,6.65-4.95,12.32-11.77,12.32h-7.15v-2.7h-2.8v-44.05h7.26c2.91,0,5.77,1.21,7.75,3.3.44.5.82,1.04,1.32,1.54,3.96,3.3,5.44,6.82,5.44,11.22,0,3.63-1.15,6.93-3.68,9.57,2.42,2.36,3.63,5.39,3.63,8.8Zm-3.24-21.23c0-6.38-4.4-12.59-11.22-12.59h-6.65v42.89h6.65c6.38,0,11.16-5.5,11.16-11.71,0-3.46-1.32-6.49-3.85-8.91,2.64-2.64,3.9-5.94,3.9-9.68Zm-11.22,6.82h-.66v-13.47c3.9,0,5.88,3.13,5.88,6.76,0,2.97-1.87,6.71-5.22,6.71Zm-.66,17.49v-11.49c.33,0,.6-.05.94-.05,2.97,0,4.95,3.19,4.95,5.88,0,3.41-2.53,5.66-5.88,5.66Zm3.24-27.66v8.58c1.48-1.32,2.09-3.13,2.09-5.11,0-1.1-.22-2.2-.66-3.19l-1.43-.28Zm0,19.47v6.76c1.43-1.04,2.09-2.53,2.09-4.29,0-.77-.17-1.54-.44-2.25-.55-.17-1.1-.22-1.65-.22Z"/>
          <path class="cls-1" d="m283.59,83.21c-3.02,0-5.39-1.43-7.04-3.96-6.21-3.46-6.6-15.67-6.6-21.89,0-7.2.6-22.82,10.89-22.82,3.08,0,5.44,1.43,7.09,3.96,5.88,3.3,6.54,15.62,6.54,21.56,0,7.15-.55,23.15-10.89,23.15Zm-2.75-48.17c-9.51,0-10.45,15.51-10.45,22.33s.5,22.55,10.45,22.55,10.34-15.78,10.34-22.55-.49-22.33-10.34-22.33Zm-4.45,22.49c0-3.08.39-16.44,4.45-16.44s4.45,13.36,4.45,16.39-.49,16.44-4.45,16.44-4.45-13.36-4.45-16.39Zm6.71-13.09c-2.97,1.65-3.41,12.59-3.41,15.62,0,4.12.22,9.24,1.65,13.2,3.02-1.87,3.3-12.76,3.3-15.89,0-3.96-.22-9.18-1.54-12.92Z"/>
          <path class="cls-1" d="m307.63,45.49v36.96h-7.04v-2.75h-2.8v-34.21h-2.09c.17-.88.38-1.82.6-2.7h-3.3c.27-2.36.99-4.84,1.48-7.15h13.8v2.8h2.69v7.04h-3.35Zm.06-9.24h-12.7l-1.32,5.99h4.73v36.9h5.94v-36.9h3.35v-5.99Z"/>
        </g>
        <g id="subtitulo">
          <path class="cls-1" d="m147.26,95.09c-.46,0-.86-.17-1.2-.51-.27.34-.63.51-1.09.51s-.86-.17-1.2-.51c-.34-.34-.51-.74-.51-1.2v-5.71c0-.15.06-.29.17-.4s.25-.17.4-.17.29.06.4.17.17.25.17.4v5.71c0,.15.06.29.17.4s.25.17.4.17.29-.06.4-.17.17-.25.17-.4v-2.29c0-.15.06-.29.17-.4.11-.11.25-.17.4-.17s.29.06.4.17.17.25.17.4v2.29c0,.15.06.29.17.4s.25.17.4.17.29-.06.4-.17c.11-.11.17-.25.17-.4v-5.71c0-.15.06-.29.17-.4s.25-.17.4-.17.29.06.4.17.17.25.17.4v5.71c0,.46-.17.86-.51,1.2s-.74.51-1.2.51Z"/>
          <path class="cls-1" d="m151.83,95.09c-.46,0-.86-.17-1.2-.51-.34-.34-.51-.74-.51-1.2v-2.29c0-.46.17-.86.51-1.2.34-.34.74-.51,1.2-.51h2.29c.46,0,.86.17,1.2.51s.51.74.51,1.2v1.14c0,.15-.06.29-.17.4s-.25.17-.4.17h-4v.57c0,.15.06.29.17.4s.25.17.4.17h2.29c.15,0,.29.06.4.17.11.11.17.25.17.4s-.06.29-.17.4c-.11.11-.25.17-.4.17h-2.29Zm-.57-3.43h3.43v-.57c0-.15-.06-.29-.17-.4-.11-.11-.25-.17-.4-.17h-2.29c-.15,0-.29.06-.4.17s-.17.25-.17.4v.57Z"/>
          <path class="cls-1" d="m157.54,95.09c-.15,0-.29-.06-.4-.17s-.17-.25-.17-.4v-6.86c0-.15.06-.29.17-.4s.25-.17.4-.17.29.06.4.17.17.25.17.4v1.71h2.86c.46,0,.86.17,1.2.51s.51.74.51,1.2v2.29c0,.46-.17.86-.51,1.2s-.74.51-1.2.51h-3.43Zm3.43-4.57h-2.86v3.43h2.86c.15,0,.29-.06.4-.17.11-.11.17-.25.17-.4v-2.29c0-.15-.06-.29-.17-.4-.11-.11-.25-.17-.4-.17Z"/>
          <path class="cls-1" d="m171.26,95.09c-.15,0-.29-.06-.4-.17s-.17-.25-.17-.4v-6.86c0-.15.06-.29.17-.4s.25-.17.4-.17h3.43c.46,0,.86.17,1.2.51s.51.74.51,1.2v4.57c0,.46-.17.86-.51,1.2s-.74.51-1.2.51h-3.43Zm4-1.71v-4.57c0-.15-.06-.29-.17-.4-.11-.11-.25-.17-.4-.17h-2.86v5.71h2.86c.15,0,.29-.06.4-.17.11-.11.17-.25.17-.4Z"/>
          <path class="cls-1" d="m179.26,95.09c-.46,0-.86-.17-1.2-.51-.34-.34-.51-.74-.51-1.2v-2.29c0-.46.17-.86.51-1.2.34-.34.74-.51,1.2-.51h2.29c.46,0,.86.17,1.2.51s.51.74.51,1.2v1.14c0,.15-.06.29-.17.4s-.25.17-.4.17h-4v.57c0,.15.06.29.17.4s.25.17.4.17h2.29c.15,0,.29.06.4.17.11.11.17.25.17.4s-.06.29-.17.4c-.11.11-.25.17-.4.17h-2.29Zm-.57-3.43h3.43v-.57c0-.15-.06-.29-.17-.4-.11-.11-.25-.17-.4-.17h-2.29c-.15,0-.29.06-.4.17s-.17.25-.17.4v.57Z"/>
          <path class="cls-1" d="m186.11,92.8c-.46,0-.86-.17-1.2-.51-.34-.34-.51-.74-.51-1.2s.17-.86.51-1.2c.34-.34.74-.51,1.2-.51h3.43c.15,0,.29.06.4.17s.17.25.17.4-.06.29-.17.4-.25.17-.4.17h-3.43c-.15,0-.29.06-.4.17s-.17.25-.17.4.06.29.17.4.25.17.4.17h2.29c.46,0,.86.17,1.2.51s.51.74.51,1.2-.17.86-.51,1.2-.74.51-1.2.51h-3.43c-.15,0-.29-.06-.4-.17s-.17-.25-.17-.4.06-.29.17-.4.25-.17.4-.17h3.43c.15,0,.29-.06.4-.17.11-.11.17-.25.17-.4s-.06-.29-.17-.4c-.11-.11-.25-.17-.42-.17h-2.26Z"/>
          <path class="cls-1" d="m193.54,90.51h-.57c-.15,0-.29-.06-.4-.17s-.17-.25-.17-.4.06-.29.17-.4.25-.17.4-.17h1.14c.15,0,.29.06.4.17s.17.25.17.4v4h.57c.15,0,.29.06.4.17.11.11.17.25.17.4s-.06.29-.17.4c-.11.11-.25.17-.4.17h-2.29c-.15,0-.29-.06-.4-.17s-.17-.25-.17-.4.06-.29.17-.4.25-.17.4-.17h.57v-3.43Zm.57-2.29c-.15,0-.29-.06-.4-.17-.11-.11-.17-.25-.17-.4s.06-.29.17-.4c.11-.11.25-.17.4-.17s.29.06.4.17.17.25.17.4-.06.29-.17.4-.25.17-.4.17Z"/>
          <path class="cls-1" d="m199.83,93.94c-.46,0-.86-.17-1.2-.51-.34-.34-.51-.74-.51-1.2v-1.14c0-.46.17-.86.51-1.2.34-.34.74-.51,1.2-.51h3.43c.15,0,.29.06.4.17s.17.25.17.4v4.57c0,.46-.17.86-.51,1.2s-.74.51-1.2.51h-2.29c-.15,0-.29-.06-.4-.17s-.17-.25-.17-.4.06-.29.17-.4.25-.17.4-.17h2.29c.15,0,.29-.06.4-.17.11-.11.17-.25.17-.4v-.57h-2.86Zm2.86-1.14v-2.29h-2.86c-.15,0-.29.06-.4.17s-.17.25-.17.4v1.14c0,.15.06.29.17.4s.25.17.4.17h2.86Z"/>
          <path class="cls-1" d="m206.11,90.51v4c0,.15-.06.29-.17.4s-.25.17-.4.17-.29-.06-.4-.17-.17-.25-.17-.4v-4.57c0-.15.06-.29.17-.4s.25-.17.4-.17h3.43c.46,0,.86.17,1.2.51s.51.74.51,1.2v3.43c0,.15-.06.29-.17.4s-.25.17-.4.17-.29-.06-.4-.17-.17-.25-.17-.4v-3.43c0-.15-.06-.29-.17-.4-.11-.11-.25-.17-.4-.17h-2.86Z"/>
          <path class="cls-1" d="m223.83,95.09c-.15,0-.29-.06-.4-.17l-.77-.74-.72.74c-.11.11-.25.17-.4.17h-1.14c-.46,0-.86-.17-1.2-.51-.34-.34-.51-.74-.51-1.2v-1.14c0-.15.06-.29.17-.4l.74-.74-.74-.74c-.11-.11-.17-.25-.17-.4v-1.14c0-.46.17-.86.51-1.2.34-.34.74-.51,1.2-.51s.86.17,1.2.51.51.74.51,1.2v1.14c0,.15-.06.29-.17.4l-.77.74.77.74.74.74.74-.74c.11-.11.25-.17.4-.17s.29.06.4.17.17.25.17.4-.06.29-.17.4l-.74.72.74.77c.11.11.17.25.17.4s-.06.29-.17.4-.25.17-.4.17Zm-4-5.39l.57.57.57-.57v-.89c0-.15-.06-.29-.17-.4s-.25-.17-.4-.17-.29.06-.4.17-.17.25-.17.4v.89Zm2.06,3.68l-1.49-1.49-.57.59v.89c0,.15.06.29.17.4s.25.17.4.17h.91l.57-.57Z"/>
          <path class="cls-1" d="m232.97,95.09c-.15,0-.29-.06-.4-.17s-.17-.25-.17-.4v-6.86c0-.15.06-.29.17-.4s.25-.17.4-.17h3.43c.46,0,.86.17,1.2.51s.51.74.51,1.2v4.57c0,.46-.17.86-.51,1.2s-.74.51-1.2.51h-3.43Zm4-1.71v-4.57c0-.15-.06-.29-.17-.4-.11-.11-.25-.17-.4-.17h-2.86v5.71h2.86c.15,0,.29-.06.4-.17.11-.11.17-.25.17-.4Z"/>
          <path class="cls-1" d="m240.97,95.09c-.46,0-.86-.17-1.2-.51-.34-.34-.51-.74-.51-1.2v-2.29c0-.46.17-.86.51-1.2.34-.34.74-.51,1.2-.51h2.29c.46,0,.86.17,1.2.51s.51.74.51,1.2v1.14c0,.15-.06.29-.17.4s-.25.17-.4.17h-4v.57c0,.15.06.29.17.4s.25.17.4.17h2.29c.15,0,.29.06.4.17.11.11.17.25.17.4s-.06.29-.17.4c-.11.11-.25.17-.4.17h-2.29Zm-.57-3.43h3.43v-.57c0-.15-.06-.29-.17-.4-.11-.11-.25-.17-.4-.17h-2.29c-.15,0-.29.06-.4.17s-.17.25-.17.4v.57Z"/>
          <path class="cls-1" d="m248.97,95.09c-.15,0-.29-.06-.4-.17l-2.29-2.29c-.11-.11-.17-.25-.17-.4v-2.29c0-.15.06-.29.17-.4s.25-.17.4-.17.29.06.4.17.17.25.17.4v1.74l1.71,1.71,1.71-1.71v-1.74c0-.15.06-.29.17-.4s.25-.17.4-.17.29.06.4.17.17.25.17.4v2.29c0,.15-.06.29-.17.4l-2.29,2.29c-.11.11-.25.17-.4.17Z"/>
          <path class="cls-1" d="m254.68,95.09c-.46,0-.86-.17-1.2-.51-.34-.34-.51-.74-.51-1.2v-2.29c0-.46.17-.86.51-1.2.34-.34.74-.51,1.2-.51h2.29c.46,0,.86.17,1.2.51s.51.74.51,1.2v1.14c0,.15-.06.29-.17.4s-.25.17-.4.17h-4v.57c0,.15.06.29.17.4s.25.17.4.17h2.29c.15,0,.29.06.4.17.11.11.17.25.17.4s-.06.29-.17.4c-.11.11-.25.17-.4.17h-2.29Zm-.57-3.43h3.43v-.57c0-.15-.06-.29-.17-.4-.11-.11-.25-.17-.4-.17h-2.29c-.15,0-.29.06-.4.17s-.17.25-.17.4v.57Z"/>
          <path class="cls-1" d="m261.54,95.09c-.15,0-.29-.06-.4-.17s-.17-.25-.17-.4.06-.29.17-.4.25-.17.4-.17h.57v-5.71h-.57c-.15,0-.29-.06-.4-.17s-.17-.25-.17-.4.06-.29.17-.4.25-.17.4-.17h1.14c.15,0,.29.06.4.17s.17.25.17.4v6.29h.57c.15,0,.29.06.4.17.11.11.17.25.17.4s-.06.29-.17.4c-.11.11-.25.17-.4.17h-2.29Z"/>
          <path class="cls-1" d="m268.4,95.09c-.46,0-.86-.17-1.2-.51-.34-.34-.51-.74-.51-1.2v-2.29c0-.46.17-.86.51-1.2.34-.34.74-.51,1.2-.51h2.29c.46,0,.86.17,1.2.51s.51.74.51,1.2v2.29c0,.46-.17.86-.51,1.2s-.74.51-1.2.51h-2.29Zm2.86-4c0-.15-.06-.29-.17-.4-.11-.11-.25-.17-.4-.17h-2.29c-.15,0-.29.06-.4.17s-.17.25-.17.4v2.29c0,.15.06.29.17.4s.25.17.4.17h2.29c.15,0,.29-.06.4-.17.11-.11.17-.25.17-.4v-2.29Z"/>
          <path class="cls-1" d="m277.54,93.94h-2.86v1.71c0,.15-.06.29-.17.4s-.25.17-.4.17-.29-.05-.4-.16c-.11-.11-.17-.24-.17-.41v-5.71c0-.15.06-.29.17-.4s.25-.17.4-.17h3.43c.46,0,.86.17,1.2.51s.51.74.51,1.2v1.14c0,.46-.17.86-.51,1.2s-.74.51-1.2.51Zm-2.86-1.14h2.86c.15,0,.29-.06.4-.17.11-.11.17-.25.17-.4v-1.14c0-.15-.06-.29-.17-.4-.11-.11-.25-.17-.4-.17h-2.86v2.29Z"/>
          <path class="cls-1" d="m281.54,90.51v4c0,.15-.06.29-.17.4s-.25.17-.4.17-.29-.06-.4-.17-.17-.25-.17-.4v-4.57c0-.15.06-.29.17-.4s.25-.17.4-.17h1.14c.46,0,.86.17,1.2.51.27-.34.63-.51,1.09-.51s.86.17,1.2.51.51.74.51,1.2v3.43c0,.15-.06.29-.17.4s-.25.17-.4.17-.29-.06-.4-.17-.17-.25-.17-.4v-3.43c0-.15-.06-.29-.17-.4-.11-.11-.25-.17-.4-.17s-.29.06-.4.17-.17.25-.17.4v3.43c0,.15-.06.29-.17.4s-.25.17-.4.17-.29-.06-.4-.17c-.11-.11-.17-.25-.17-.4v-3.43c0-.15-.06-.29-.17-.4s-.25-.17-.4-.17h-.57Z"/>
          <path class="cls-1" d="m288.97,95.09c-.46,0-.86-.17-1.2-.51-.34-.34-.51-.74-.51-1.2v-2.29c0-.46.17-.86.51-1.2.34-.34.74-.51,1.2-.51h2.29c.46,0,.86.17,1.2.51s.51.74.51,1.2v1.14c0,.15-.06.29-.17.4s-.25.17-.4.17h-4v.57c0,.15.06.29.17.4s.25.17.4.17h2.29c.15,0,.29.06.4.17.11.11.17.25.17.4s-.06.29-.17.4c-.11.11-.25.17-.4.17h-2.29Zm-.57-3.43h3.43v-.57c0-.15-.06-.29-.17-.4-.11-.11-.25-.17-.4-.17h-2.29c-.15,0-.29.06-.4.17s-.17.25-.17.4v.57Z"/>
          <path class="cls-1" d="m295.26,90.51v4c0,.15-.06.29-.17.4s-.25.17-.4.17-.29-.06-.4-.17-.17-.25-.17-.4v-4.57c0-.15.06-.29.17-.4s.25-.17.4-.17h3.43c.46,0,.86.17,1.2.51s.51.74.51,1.2v3.43c0,.15-.06.29-.17.4s-.25.17-.4.17-.29-.06-.4-.17-.17-.25-.17-.4v-3.43c0-.15-.06-.29-.17-.4-.11-.11-.25-.17-.4-.17h-2.86Z"/>
          <path class="cls-1" d="m302.68,90.51c-.15,0-.29-.06-.4-.17s-.17-.25-.17-.4.06-.29.17-.4.25-.17.4-.17h.57v-1.71c0-.15.06-.29.17-.4.11-.11.25-.17.4-.17s.29.06.4.17.17.25.17.4v1.71h1.71c.15,0,.29.06.4.17s.17.25.17.4-.06.29-.17.4-.25.17-.4.17h-1.71v2.86c0,.15.06.29.17.4s.25.17.4.17h1.14c.15,0,.29.06.4.17s.17.25.17.4-.06.29-.17.4-.25.17-.4.17h-1.14c-.46,0-.86-.17-1.2-.51s-.51-.74-.51-1.2v-2.86h-.57Z"/>
        </g>
      </g>
    </g>
  </g>
</svg>