<?xml version="1.0" encoding="UTF-8"?>
<svg id="Capa_2" data-name="Capa 2" xmlns="http://www.w3.org/2000/svg" xmlns:xlink="http://www.w3.org/1999/xlink" viewBox="0 0 300.44 245.75">
  <defs>
    <style>
      .cls-1 {
        fill: #3b3d59;
      }

      .cls-2 {
        fill: #fff;
      }

      .cls-3 {
        fill: #01117c;
      }

      .cls-4 {
        fill: #f1b070;
      }

      .cls-5, .cls-6 {
        fill: none;
      }

      .cls-7 {
        fill: #f6f4f3;
      }

      .cls-6 {
        clip-path: url(#clippath);
      }

      .cls-8 {
        fill: #e07362;
      }
    </style>
    <clipPath id="clippath">
      <path class="cls-5" d="m279.99,158.51c-74.34,0-133.39,1.89-205.27,1.89V13.63c71.88,0,130.92-1.89,205.27-1.89v146.76Z"/>
    </clipPath>
  </defs>
  <g id="OBJECTS">
    <g>
      <g>
        <g>
          <path class="cls-4" d="m62.84,172.39c80.33,0,146.31-2.19,229.39-2.19l-62.89,59.86H.63l62.21-57.67Z"/>
          <path d="m62.84,173.01c29.78,0,59.56-.32,89.34-.74,29.15-.41,58.3-.89,87.45-1.18,17.53-.17,35.07-.27,52.6-.27l-.44-1.07c-6.07,5.78-12.14,11.56-18.21,17.33-10.6,10.09-21.21,20.19-31.81,30.28l-10.59,10.08c-.53.5-1.88,1.36-2.16,2.05-.13.33.23-.11.28-.08-.07-.05-.29,0-.37,0-1.66-.17-3.43,0-5.1,0H.63l.44,1.07c7.04-6.53,14.08-13.05,21.12-19.58,11.13-10.32,22.27-20.64,33.4-30.96,2.56-2.38,5.13-4.75,7.69-7.13.59-.55-.29-1.43-.88-.88-7.04,6.53-14.08,13.05-21.12,19.58-11.13,10.32-22.27,20.64-33.4,30.96-2.56,2.38-5.13,4.75-7.69,7.13-.4.37-.09,1.07.44,1.07h226.7c.83,0,1.88.21,2.57-.29.78-.56,1.46-1.39,2.16-2.05l4.49-4.27c10.05-9.57,20.1-19.13,30.15-28.7,8.21-7.81,16.42-15.63,24.63-23.44l1.35-1.29c.4-.38.09-1.07-.44-1.07-30.44,0-60.88.31-91.31.74-28.97.4-57.93.89-86.9,1.18-17.06.17-34.12.27-51.18.27-.8,0-.81,1.25,0,1.25Z"/>
        </g>
        <g>
          <g>
            <g>
              <path class="cls-7" d="m47.25,200.57c6.45-6.78,14.4-13.7,21.14-20.35h195.75c-8.34,8.5-12.66,12.16-20.98,19.81l-195.91.55Z"/>
              <path d="m47.69,201.01c6.4-6.7,13.39-12.8,20.02-19.26.21-.21.45-.4.64-.63-.08.1.28-.4.03-.29,0,0,0,0,.01,0,.02,0,.04,0,.06,0,.07-.03.18.01.26,0,.33-.06.72,0,1.06,0h191.1c.93,0,1.98.13,2.91,0,.12-.02.25,0,.36,0l-.44-1.07c-5.62,5.72-11.49,11.15-17.42,16.55-.74.67-1.47,1.34-2.21,2.02-.21.19-.47.4-.67.61l-.34.31.1.13s0,0-.01,0c-.05.02-.12-.01-.17,0-.26.07-.63,0-.9,0l-10.34.03-19.2.05-25.59.07-29.29.08c-10.08.03-20.16.06-30.24.08l-28.72.08-24.69.07-17.86.05c-2.84,0-5.7-.04-8.54.02-.13,0-.25,0-.38,0-.8,0-.81,1.25,0,1.25,1.96,0,3.93-.01,5.89-.02l16-.04c7.78-.02,15.56-.04,23.34-.07l28.11-.08,30.25-.08,29.88-.08c8.88-.02,17.76-.05,26.64-.07l20.89-.06,12.52-.03c.74,0,1.56.09,2.3,0,.03,0,.07,0,.11,0,.71-.15,1.27-.94,1.79-1.42.79-.72,1.57-1.44,2.36-2.16,2.79-2.55,5.6-5.08,8.35-7.67,3.03-2.85,5.99-5.77,8.91-8.74.38-.38.1-1.07-.44-1.07H71.25c-.87,0-1.77-.06-2.64,0s-1.34.85-1.94,1.43c-3.37,3.28-6.83,6.46-10.25,9.68s-6.51,6.18-9.61,9.43c-.56.58.33,1.47.88.88Z"/>
            </g>
            <g>
              <path d="m62.26,186.99c8.52-.05,17.04-.06,25.56-.07,14.7-.03,29.4-.05,44.1-.07,16.87-.03,33.73-.05,50.6-.07,15.13-.02,30.25-.04,45.38-.07,9.45-.02,18.9-.03,28.35-.07.57,0,1.15,0,1.72,0,.8,0,.81-1.25,0-1.25-8.52.05-17.04.06-25.56.07-14.7.03-29.4.05-44.1.07-16.87.03-33.73.05-50.6.07-15.13.02-30.25.04-45.38.07-9.45.02-18.9.03-28.35.07-.57,0-1.15,0-1.72,0-.8,0-.81,1.25,0,1.25h0Z"/>
              <path d="m54.7,193.87c8.52-.05,17.04-.06,25.56-.07,14.7-.03,29.4-.05,44.1-.07,16.87-.03,33.73-.05,50.6-.07,15.13-.02,30.25-.04,45.38-.07,9.45-.02,18.9-.03,28.35-.07.57,0,1.15,0,1.72,0,.8,0,.81-1.25,0-1.25-8.52.05-17.04.06-25.56.07-14.7.03-29.4.05-44.1.07-16.87.03-33.73.05-50.6.07-15.13.02-30.25.04-45.38.07-9.45.02-18.9.03-28.35.07-.57,0-1.15,0-1.72,0-.8,0-.81,1.25,0,1.25h0Z"/>
              <path d="m77.82,179.79c-6.1,6.83-12.51,13.36-18.61,20.19-.53.6.35,1.49.88.88,6.1-6.83,12.51-13.36,18.61-20.19.53-.6-.35-1.49-.88-.88h0Z"/>
              <path d="m89.44,179.79c-6.1,6.83-12.51,13.36-18.61,20.19-.53.6.35,1.49.88.88,6.1-6.83,12.51-13.36,18.61-20.19.53-.6-.35-1.49-.88-.88h0Z"/>
              <path d="m101.06,179.79c-6.1,6.83-12.51,13.36-18.61,20.19-.53.6.35,1.49.88.88,6.1-6.83,12.51-13.36,18.61-20.19.53-.6-.35-1.49-.88-.88h0Z"/>
              <path d="m112.68,179.79c-6.1,6.83-12.51,13.36-18.61,20.19-.53.6.35,1.49.88.88,6.1-6.83,12.51-13.36,18.61-20.19.53-.6-.35-1.49-.88-.88h0Z"/>
              <path d="m124.29,179.79c-6.1,6.83-12.51,13.36-18.61,20.19-.53.6.35,1.49.88.88,6.1-6.83,12.51-13.36,18.61-20.19.53-.6-.35-1.49-.88-.88h0Z"/>
              <path d="m135.91,179.79c-6.1,6.83-12.51,13.36-18.61,20.19-.53.6.35,1.49.88.88,6.1-6.83,12.51-13.36,18.61-20.19.53-.6-.35-1.49-.88-.88h0Z"/>
              <path d="m147.53,179.79c-6.1,6.83-12.51,13.36-18.61,20.19-.53.6.35,1.49.88.88,6.1-6.83,12.51-13.36,18.61-20.19.53-.6-.35-1.49-.88-.88h0Z"/>
              <path d="m159.14,179.79c-2.61,2.92-5.32,5.72-7.98,8.59-1.27,1.37-2.51,2.76-3.75,4.15-.53.6.35,1.49.88.88,2.61-2.92,5.32-5.72,7.98-8.59,1.27-1.37,2.51-2.76,3.75-4.15.53-.6-.35-1.49-.88-.88h0Z"/>
              <path d="m170.76,179.79c-1.73,1.94-3.45,3.89-5.28,5.73-.98.99-1.97,1.96-2.92,2.98-1.27,1.36-2.52,2.75-3.76,4.14-.53.6.35,1.49.88.88,1.73-1.94,3.45-3.89,5.28-5.73.98-.99,1.97-1.96,2.92-2.98,1.27-1.36,2.52-2.75,3.76-4.14.53-.6-.35-1.49-.88-.88h0Z"/>
              <path d="m182.38,179.79c-5.99,6.71-12.28,13.14-18.27,19.85-.53.6.35,1.49.88.88,5.99-6.71,12.28-13.14,18.27-19.85.53-.6-.35-1.49-.88-.88h0Z"/>
              <path d="m193.99,179.79c-5.92,6.63-12.24,12.88-18.16,19.51-.53.6.35,1.49.88.88,5.92-6.63,12.24-12.88,18.16-19.51.53-.6-.35-1.49-.88-.88h0Z"/>
              <path d="m205.61,179.79c-5.94,6.65-12.33,12.87-18.27,19.51-.53.6.35,1.49.88.88,5.94-6.65,12.33-12.87,18.27-19.51.53-.6-.35-1.49-.88-.88h0Z"/>
              <path d="m217.23,179.79c-5.94,6.65-12.33,12.87-18.27,19.51-.53.6.35,1.49.88.88,5.94-6.65,12.33-12.87,18.27-19.51.53-.6-.35-1.49-.88-.88h0Z"/>
              <path d="m228.84,179.79c-5.94,6.65-12.22,12.98-18.16,19.62-.53.6.35,1.49.88.88,5.94-6.65,12.22-12.98,18.16-19.62.53-.6-.35-1.49-.88-.88h0Z"/>
              <path d="m240.46,179.79c-5.87,6.57-12.06,12.83-17.93,19.4-.53.6.35,1.49.88.88,5.87-6.57,12.06-12.83,17.93-19.4.53-.6-.35-1.49-.88-.88h0Z"/>
              <path d="m252.08,179.79c-5.9,6.61-12.03,13.02-17.93,19.62-.53.6.35,1.49.88.88,5.9-6.61,12.03-13.02,17.93-19.62.53-.6-.35-1.49-.88-.88h0Z"/>
            </g>
          </g>
          <g>
            <g>
              <path class="cls-7" d="m88.52,225.51c6.45-6.78,14.4-13.7,21.14-20.35h64.37c-8.34,8.5-12.3,12.16-20.62,19.81l-64.89.55Z"/>
              <path d="m88.96,225.95c4.66-4.88,9.63-9.44,14.55-14.05,1.23-1.16,2.46-2.31,3.68-3.48.55-.52,1.09-1.04,1.63-1.57.28-.27.63-.75.96-.94.04-.02-.18-.1-.11-.13.17-.08.58,0,.76,0h63.6l-.44-1.07c-4.14,4.22-8.33,8.37-12.64,12.42-2.2,2.06-4.41,4.11-6.63,6.15-.28.25-.58.49-.83.77.42-.45-.67.57-.08.29-.02,0-.05,0-.08,0-.1.04-.26,0-.37,0-1.37.16-2.84.02-4.22.04l-7.7.06c-13.91.12-27.81.23-41.72.35-3.6.03-7.2.06-10.8.09-.8,0-.81,1.26,0,1.25,9.74-.08,19.47-.16,29.21-.25l34.8-.29c.28,0,.61.05.88,0,.49-.1.77-.48,1.13-.81.65-.59,1.29-1.19,1.94-1.79,1.26-1.16,2.51-2.32,3.76-3.48,4.86-4.52,9.59-9.18,14.24-13.91.38-.38.1-1.07-.44-1.07h-63.05c-.4,0-.85-.06-1.24,0-.45.07-.66.31-1,.65-1.35,1.32-2.72,2.63-4.09,3.93-5.57,5.27-11.28,10.4-16.57,15.96-.56.58.33,1.47.88.88Z"/>
            </g>
            <g>
              <path d="m99.15,221.82c3.73-3.66,7.3-7.49,10.7-11.46.52-.61-.36-1.5-.88-.88-3.4,3.98-6.96,7.8-10.7,11.46-.58.56.31,1.45.88.88h0Z"/>
              <path d="m112.73,221.15c10.52.11,21.04.22,31.56.33.8,0,.81-1.24,0-1.25-10.52-.11-21.04-.22-31.56-.33-.8,0-.81,1.24,0,1.25h0Z"/>
              <path d="m148.47,221.19c.8,0,.81-1.25,0-1.25s-.81,1.25,0,1.25h0Z"/>
              <path d="m151.05,209.74c-1.12.76-2.23,1.53-3.35,2.29-.27.18-.42.56-.22.86.17.27.57.42.86.22,1.12-.76,2.23-1.53,3.35-2.29.27-.18.42-.56.22-.86-.17-.27-.57-.42-.86-.22h0Z"/>
              <path d="m151.92,212.5c-.98.63-1.95,1.25-2.93,1.88-.27.18-.41.56-.22.86.18.27.56.41.86.22.98-.63,1.95-1.25,2.93-1.88.27-.18.41-.56.22-.86-.18-.27-.56-.41-.86-.22h0Z"/>
            </g>
          </g>
          <g>
            <path d="m42.28,196.52c-8.56,8.3-17.12,16.6-25.68,24.9-.58.56.31,1.44.88.88,8.56-8.3,17.12-16.6,25.68-24.9.58-.56-.31-1.44-.88-.88h0Z"/>
            <path d="m46.06,194.65c.8,0,.81-1.25,0-1.25s-.81,1.25,0,1.25h0Z"/>
            <path d="m65.49,176.46c12.54.18,25.08.36,37.62.54.8.01.8-1.24,0-1.25-12.54-.18-25.08-.36-37.62-.54-.8-.01-.8,1.24,0,1.25h0Z"/>
            <path d="m107.92,175h-.21c-.09,0-.17.01-.24.05-.08.03-.14.07-.2.13-.06.06-.1.12-.13.2-.04.07-.06.15-.05.24l.02.17c.03.11.08.2.16.28l.13.1c.1.06.2.08.32.09h.21c.09,0,.17-.01.24-.05.08-.03.14-.07.2-.13.06-.06.1-.12.13-.2.04-.07.06-.15.05-.24l-.02-.17c-.03-.11-.08-.2-.16-.28l-.13-.1c-.1-.06-.2-.08-.32-.09h0Z"/>
            <path d="m272.08,181.14c-10.64,10.33-21.28,20.66-31.91,30.99-.58.56.31,1.44.88.88,10.64-10.33,21.28-20.66,31.91-30.99.58-.56-.31-1.44-.88-.88h0Z"/>
            <path d="m235.42,218.05c.8,0,.81-1.25,0-1.25s-.81,1.25,0,1.25h0Z"/>
            <path d="m205.28,205.91c-8.29,5.64-16.58,11.29-24.87,16.93-.66.45-.04,1.53.63,1.08,8.29-5.64,16.58-11.29,24.87-16.93.66-.45.04-1.53-.63-1.08h0Z"/>
            <path d="m204.2,211.91c-5.7,3.99-11.39,7.99-17.09,11.98-.65.46-.03,1.54.63,1.08,5.7-3.99,11.39-7.99,17.09-11.98.65-.46.03-1.54-.63-1.08h0Z"/>
            <path d="m205.83,216.25c-2.51,1.88-5.02,3.76-7.53,5.64-.27.2-.41.54-.22.86.16.27.58.43.86.22,2.51-1.88,5.02-3.76,7.53-5.64.27-.2.41-.54.22-.86-.16-.27-.58-.43-.86-.22h0Z"/>
            <path d="m210.65,217.73c-1.53.91-3.07,1.81-4.6,2.72-.29.17-.4.56-.22.86s.56.4.86.22c1.53-.91,3.07-1.81,4.6-2.72.29-.17.4-.56.22-.86s-.56-.4-.86-.22h0Z"/>
            <path d="m72.34,205.04c-1.47,1.25-2.94,2.49-4.41,3.74-.26.22-.22.66,0,.88.26.26.63.22.88,0,1.47-1.25,2.94-2.49,4.41-3.74.26-.22.22-.66,0-.88-.26-.26-.63-.22-.88,0h0Z"/>
            <path d="m73.2,207.16c-.91.77-1.81,1.53-2.72,2.3-.25.21-.23.67,0,.88.27.24.62.23.88,0,.91-.77,1.81-1.53,2.72-2.3.25-.21.23-.67,0-.88-.27-.24-.62-.23-.88,0h0Z"/>
            <path d="m35.81,223.96c10.91.97,21.88,1.14,32.82.53.8-.05.81-1.3,0-1.25-10.94.62-21.9.44-32.82-.53-.8-.07-.8,1.18,0,1.25h0Z"/>
            <path d="m73.02,225.58c.8,0,.81-1.25,0-1.25s-.81,1.25,0,1.25h0Z"/>
            <path d="m47.52,219.52c2.51.21,5.02.42,7.52.63.8.07.8-1.18,0-1.25-2.51-.21-5.02-.42-7.52-.63-.8-.07-.8,1.18,0,1.25h0Z"/>
            <path d="m198.21,174.16h19.23c.8,0,.81-1.25,0-1.25h-19.23c-.8,0-.81,1.25,0,1.25h0Z"/>
            <path d="m220.37,174.37c.8,0,.81-1.25,0-1.25s-.81,1.25,0,1.25h0Z"/>
            <path d="m212.43,177.09c4.32.22,8.65.15,12.96-.21.8-.07.8-1.32,0-1.25-4.31.36-8.64.43-12.96.21-.8-.04-.8,1.21,0,1.25h0Z"/>
            <path d="m268.3,174.88c-.42.56-.83,1.12-1.25,1.67-.09.12-.1.34-.06.48s.15.3.29.37c.15.08.32.12.48.06l.15-.06c.09-.06.17-.13.22-.22.42-.56.83-1.12,1.25-1.67.09-.12.1-.34.06-.48s-.15-.3-.29-.37c-.15-.08-.32-.12-.48-.06l-.15.06c-.09.06-.17.13-.22.22h0Z"/>
            <path d="m271.9,175.1c-1,.68-1.83,1.61-2.36,2.7-.14.29-.09.69.22.86.28.15.7.09.86-.22.12-.24.25-.48.39-.7.07-.11.15-.22.23-.33.01-.02.08-.11.02-.03s.02-.02.03-.03c.04-.05.09-.1.13-.15.17-.2.35-.39.55-.56.1-.09.2-.18.31-.26.06-.05-.11.08-.01.01.03-.02.05-.04.08-.06.06-.04.12-.09.18-.13.27-.18.42-.56.22-.86-.17-.27-.57-.42-.86-.22h0Z"/>
            <path d="m279.91,174.77c-.07.07-.14.14-.21.21-.06.06-.1.12-.13.2-.04.07-.06.15-.05.24,0,.09.01.17.05.24.03.08.07.14.13.2l.13.1c.1.06.2.08.32.09l.17-.02c.11-.03.2-.08.28-.16.07-.07.14-.14.21-.21.06-.06.1-.12.13-.2.04-.07.06-.15.05-.24,0-.09-.01-.17-.05-.24-.03-.08-.07-.14-.13-.2l-.13-.1c-.1-.06-.2-.08-.32-.09l-.17.02c-.11.03-.2.08-.28.16h0Z"/>
            <path d="m150.14,175.83c.8,0,.81-1.25,0-1.25s-.81,1.25,0,1.25h0Z"/>
          </g>
        </g>
      </g>
      <g>
        <g>
          <polygon class="cls-4" points=".63 230.06 229.34 230.06 229.34 245.1 1.31 245.1 .63 230.06"/>
          <path d="m.63,230.68h225.26c1,0,2.09.12,3.08,0,.12-.02.25,0,.38,0l-.62-.62v15.04l.62-.62H4.75c-.99,0-2.07-.12-3.06,0-.12.02-.26,0-.38,0l.62.62c-.23-5.01-.46-10.03-.68-15.04-.04-.8-1.29-.81-1.25,0,.23,5.01.46,10.03.68,15.04.02.34.27.62.62.62h218.79c2.95,0,5.91.06,8.87,0,.13,0,.25,0,.38,0,.34,0,.62-.29.62-.62v-15.04c0-.34-.29-.62-.62-.62H9.95c-2.98,0-5.97-.06-8.95,0-.13,0-.25,0-.38,0-.8,0-.81,1.25,0,1.25Z"/>
        </g>
        <g>
          <path d="m6.65,230.6v14.21c0,.8,1.25.81,1.25,0v-14.21c0-.8-1.25-.81-1.25,0h0Z"/>
          <path d="m14.69,230.6v14.21c0,.8,1.25.81,1.25,0v-14.21c0-.8-1.25-.81-1.25,0h0Z"/>
          <path d="m22.73,230.6v14.21c0,.8,1.25.81,1.25,0v-14.21c0-.8-1.25-.81-1.25,0h0Z"/>
          <path d="m30.78,230.6v14.21c0,.8,1.25.81,1.25,0v-14.21c0-.8-1.25-.81-1.25,0h0Z"/>
          <path d="m38.82,230.6v14.21c0,.8,1.25.81,1.25,0v-14.21c0-.8-1.25-.81-1.25,0h0Z"/>
          <path d="m46.87,230.6v14.21c0,.8,1.25.81,1.25,0v-14.21c0-.8-1.25-.81-1.25,0h0Z"/>
          <path d="m54.91,230.6v14.21c0,.8,1.25.81,1.25,0v-14.21c0-.8-1.25-.81-1.25,0h0Z"/>
          <path d="m62.96,230.6v14.21c0,.8,1.25.81,1.25,0v-14.21c0-.8-1.25-.81-1.25,0h0Z"/>
          <path d="m71,230.6v14.21c0,.8,1.25.81,1.25,0v-14.21c0-.8-1.25-.81-1.25,0h0Z"/>
          <path d="m79.05,230.6v14.21c0,.8,1.25.81,1.25,0v-14.21c0-.8-1.25-.81-1.25,0h0Z"/>
          <path d="m87.09,230.6v14.21c0,.8,1.25.81,1.25,0v-14.21c0-.8-1.25-.81-1.25,0h0Z"/>
          <path d="m95.13,230.6v14.21c0,.8,1.25.81,1.25,0v-14.21c0-.8-1.25-.81-1.25,0h0Z"/>
          <path d="m103.18,230.6v14.21c0,.8,1.25.81,1.25,0v-14.21c0-.8-1.25-.81-1.25,0h0Z"/>
          <path d="m111.22,230.6v14.21c0,.8,1.25.81,1.25,0v-14.21c0-.8-1.25-.81-1.25,0h0Z"/>
          <path d="m119.27,230.6v14.21c0,.8,1.25.81,1.25,0v-14.21c0-.8-1.25-.81-1.25,0h0Z"/>
          <path d="m127.31,230.6v14.21c0,.8,1.25.81,1.25,0v-14.21c0-.8-1.25-.81-1.25,0h0Z"/>
          <path d="m135.36,230.6v14.21c0,.8,1.25.81,1.25,0v-14.21c0-.8-1.25-.81-1.25,0h0Z"/>
          <path d="m143.4,230.6v14.21c0,.8,1.25.81,1.25,0v-14.21c0-.8-1.25-.81-1.25,0h0Z"/>
          <path d="m151.45,230.6v14.21c0,.8,1.25.81,1.25,0v-14.21c0-.8-1.25-.81-1.25,0h0Z"/>
          <path d="m159.49,230.6v14.21c0,.8,1.25.81,1.25,0v-14.21c0-.8-1.25-.81-1.25,0h0Z"/>
          <path d="m167.53,230.6v14.21c0,.8,1.25.81,1.25,0v-14.21c0-.8-1.25-.81-1.25,0h0Z"/>
          <path d="m175.58,230.6v14.21c0,.8,1.25.81,1.25,0v-14.21c0-.8-1.25-.81-1.25,0h0Z"/>
          <path d="m183.62,230.6v14.21c0,.8,1.25.81,1.25,0v-14.21c0-.8-1.25-.81-1.25,0h0Z"/>
          <path d="m191.67,230.6v14.21c0,.8,1.25.81,1.25,0v-14.21c0-.8-1.25-.81-1.25,0h0Z"/>
          <path d="m199.71,230.6v14.21c0,.8,1.25.81,1.25,0v-14.21c0-.8-1.25-.81-1.25,0h0Z"/>
          <path d="m207.76,230.6v14.21c0,.8,1.25.81,1.25,0v-14.21c0-.8-1.25-.81-1.25,0h0Z"/>
          <path d="m215.8,230.6v14.21c0,.8,1.25.81,1.25,0v-14.21c0-.8-1.25-.81-1.25,0h0Z"/>
          <path d="m223.85,230.6v14.21c0,.8,1.25.81,1.25,0v-14.21c0-.8-1.25-.81-1.25,0h0Z"/>
        </g>
      </g>
      <g>
        <g>
          <polygon class="cls-4" points="229.34 230.06 292.23 170.2 299.77 176.38 229.34 245.1 229.34 230.06"/>
          <path d="m229.79,230.5c2.08-1.98,4.15-3.95,6.23-5.93l15.06-14.33,18.13-17.26,15.69-14.93,5.2-4.95,1.62-1.54c.23-.22.7-.52.85-.81.02-.04.08-.07.11-.1h-.88c2.51,2.06,5.03,4.12,7.54,6.18v-.88c-2.34,2.28-4.68,4.57-7.02,6.85l-16.76,16.36c-6.79,6.63-13.58,13.25-20.37,19.88-5.87,5.73-11.74,11.46-17.61,17.18l-5.78,5.64-1.82,1.77c-.27.26-.75.58-.94.92-.02.04-.09.09-.13.12l1.07.44v-15.04c0-.8-1.25-.81-1.25,0v15.04c0,.55.68.82,1.07.44,2.34-2.28,4.68-4.57,7.02-6.85,5.59-5.45,11.18-10.9,16.76-16.36,6.79-6.63,13.58-13.25,20.37-19.88l17.61-17.18,5.78-5.64c.89-.87,1.97-1.71,2.76-2.69.04-.04.08-.08.13-.12.22-.22.26-.67,0-.88-2.51-2.06-5.03-4.12-7.54-6.18-.27-.22-.62-.25-.88,0-2.08,1.98-4.15,3.95-6.23,5.93l-15.06,14.33-18.13,17.26-15.69,14.93-5.2,4.95c-.8.76-1.78,1.49-2.47,2.35-.03.04-.07.07-.11.1-.58.56.3,1.44.88.88Z"/>
        </g>
        <g>
          <path d="m275.01,186.16c-.13,4.58-.26,9.16-.4,13.75-.02.8,1.23.8,1.25,0,.13-4.58.26-9.16.4-13.75.02-.8-1.23-.8-1.25,0h0Z"/>
          <path d="m237.83,226.73c-.1,1.18-.19,2.36-.29,3.54-.03.33.31.64.62.62.36-.02.6-.28.62-.62.1-1.18.19-2.36.29-3.54.03-.33-.31-.64-.62-.62-.36.02-.6.28-.62.62h0Z"/>
          <path d="m239.92,226.29c-.07.96-.13,1.92-.2,2.88-.02.33.3.64.62.62.36-.02.6-.27.62-.62.07-.96.13-1.92.2-2.88.02-.33-.3-.64-.62-.62-.36.02-.6.27-.62.62h0Z"/>
          <path d="m257.03,203.67c-.04,4.43-.08,8.87-.12,13.3,0,.8,1.24.81,1.25,0,.04-4.43.08-8.87.12-13.3,0-.8-1.24-.81-1.25,0h0Z"/>
          <path d="m260.05,205.89c-.07,1.26-.15,2.51-.22,3.77-.02.33.3.64.62.62.36-.02.6-.27.62-.62.07-1.26.15-2.51.22-3.77.02-.33-.3-.64-.62-.62-.36.02-.6.27-.62.62h0Z"/>
          <path d="m277.83,187.33c-.22,1.55-.45,3.1-.67,4.65-.05.33.08.67.44.77.29.08.72-.1.77-.44.22-1.55.45-3.1.67-4.65.05-.33-.08-.67-.44-.77-.29-.08-.72.1-.77.44h0Z"/>
          <path d="m288.23,178.46c-.22.81-.44,1.63-.67,2.44-.09.32.11.69.44.77s.68-.1.77-.44c.22-.81.44-1.63.67-2.44.09-.32-.11-.69-.44-.77s-.68.1-.77.44h0Z"/>
          <path d="m290.23,178.68l-.44,2.22c-.06.32.09.69.44.77.31.07.7-.09.77-.44l.44-2.22c.06-.32-.09-.69-.44-.77-.31-.07-.7.09-.77.44h0Z"/>
        </g>
      </g>
    </g>
    <g>
      <g>
        <path class="cls-4" d="m292.23,170.2c-83.08,0-149.07,2.19-229.39,2.19V2.81c80.33,0,146.31-2.19,229.39-2.19v169.57Z"/>
        <path d="m292.23,169.57c-30.48,0-60.96.32-91.44.74-29.01.41-58.02.89-87.03,1.18-16.97.17-33.94.27-50.91.27l.62.62V5.37c0-.71.14-1.59,0-2.28-.02-.08,0-.19,0-.28l-.62.62c29.83,0,59.65-.32,89.48-.74s58.39-.9,87.59-1.18c17.44-.17,34.88-.27,52.33-.27l-.62-.62v162.64c0,2.21-.11,4.45,0,6.66,0,.09,0,.19,0,.28,0,.8,1.25.81,1.25,0V7.56c0-2.21.11-4.45,0-6.66,0-.09,0-.19,0-.28C292.86.29,292.57,0,292.23,0c-30.48,0-60.96.32-91.44.74-29.01.41-58.02.89-87.03,1.18-16.97.17-33.94.27-50.91.27-.34,0-.62.29-.62.62v162.64c0,2.21-.11,4.45,0,6.66,0,.09,0,.19,0,.28,0,.34.29.63.62.62,29.83,0,59.65-.32,89.48-.74,29.2-.41,58.39-.9,87.59-1.18,17.44-.17,34.88-.27,52.33-.27.8,0,.81-1.25,0-1.25Z"/>
      </g>
      <g>
        <path d="m70.33,81.52c.1,9.68.2,19.36.29,29.04,0,.8,1.26.81,1.25,0-.1-9.68-.2-19.36-.29-29.04,0-.8-1.26-.81-1.25,0h0Z"/>
        <path d="m70.24,115.4c.8,0,.81-1.25,0-1.25s-.81,1.25,0,1.25h0Z"/>
        <path d="m66.96,88.84v11.08c0,.8,1.25.81,1.25,0v-11.08c0-.8-1.25-.81-1.25,0h0Z"/>
        <path d="m87.32,164.13c8.94.08,17.88.17,26.82.25.8,0,.81-1.24,0-1.25-8.94-.08-17.88-.17-26.82-.25-.8,0-.81,1.24,0,1.25h0Z"/>
        <path d="m116.8,164.84c.8,0,.81-1.25,0-1.25s-.81,1.25,0,1.25h0Z"/>
        <path d="m97.95,168.21c7.38.45,14.78.57,22.17.36.8-.02.81-1.27,0-1.25-7.39.21-14.79.09-22.17-.36-.8-.05-.8,1.2,0,1.25h0Z"/>
        <path d="m66.53,163.38c-.3,1.26-.6,2.51-.9,3.77-.08.32.1.69.44.77s.69-.1.77-.44c.3-1.26.6-2.51.9-3.77.08-.32-.1-.69-.44-.77s-.69.1-.77.44h0Z"/>
        <path d="m69.64,165.16c-.22.89-.44,1.77-.67,2.66-.08.32.1.69.44.77s.68-.1.77-.44c.22-.89.44-1.77.67-2.66.08-.32-.1-.69-.44-.77s-.68.1-.77.44h0Z"/>
        <path d="m161.04,164.34c-.44.89-.89,1.77-1.33,2.66-.15.29-.09.69.22.86.28.15.7.09.86-.22.44-.89.89-1.77,1.33-2.66.15-.29.09-.69-.22-.86-.28-.15-.7-.09-.86.22h0Z"/>
        <path d="m164.15,164.79c-.37.67-.74,1.33-1.11,2-.16.29-.08.7.22.86s.69.08.86-.22c.37-.67.74-1.33,1.11-2,.16-.29.08-.7-.22-.86s-.69-.08-.86.22h0Z"/>
        <path d="m235.41,163.23c5.69-.07,11.38-.14,17.07-.21.8,0,.81-1.26,0-1.25-5.69.07-11.38.14-17.07.21-.8,0-.81,1.26,0,1.25h0Z"/>
        <path d="m241.84,166.39h24.39c.8,0,.81-1.25,0-1.25h-24.39c-.8,0-.81,1.25,0,1.25h0Z"/>
        <path d="m271.76,166.39c.8,0,.81-1.25,0-1.25s-.81,1.25,0,1.25h0Z"/>
        <path d="m285.63,142.84c-.67.96-1.33,1.92-2,2.88-.19.27-.06.71.22.86.32.17.66.06.86-.22.67-.96,1.33-1.92,2-2.88.19-.27.06-.71-.22-.86-.32-.17-.66-.06-.86.22h0Z"/>
        <path d="m287.63,143.95c-.37.81-.74,1.63-1.11,2.44-.07.16-.11.31-.06.48.04.14.15.3.29.37.27.14.71.09.86-.22.37-.81.74-1.63,1.11-2.44.07-.16.11-.31.06-.48-.04-.14-.15-.3-.29-.37-.27-.14-.71-.09-.86.22h0Z"/>
        <path d="m282.56,86.62c.11,9.02.23,18.03.34,27.05.01.8,1.26.81,1.25,0-.11-9.02-.23-18.03-.34-27.05-.01-.8-1.26-.81-1.25,0h0Z"/>
        <path d="m283.29,117.62c.8,0,.81-1.25,0-1.25s-.81,1.25,0,1.25h0Z"/>
        <path d="m283.82,21.89c.03,8.42.06,16.85.09,25.27,0,.8,1.25.81,1.25,0-.03-8.42-.06-16.85-.09-25.27,0-.8-1.25-.81-1.25,0h0Z"/>
        <path d="m286.66,37.85c-.15,2.07-.3,4.14-.44,6.21-.02.34.3.62.62.62.36,0,.6-.29.62-.62.15-2.07.3-4.14.44-6.21.02-.34-.3-.62-.62-.62-.36,0-.6.29-.62.62h0Z"/>
        <path d="m283.64,7.41c.06-.25.14-.49.23-.73.03-.08,0,0-.01.03,0-.03.03-.07.04-.1.03-.06.05-.12.08-.17.06-.11.12-.23.18-.33.06-.1.13-.2.2-.3.04-.05.08-.1.11-.15-.08.13-.03.04,0,0,.02-.02.04-.04.05-.07.17-.2.35-.39.55-.56.25-.22.24-.67,0-.88-.26-.24-.62-.23-.88,0-.87.76-1.49,1.8-1.75,2.92-.07.32.1.69.44.77.32.07.69-.1.77-.44h0Z"/>
        <path d="m286.46,4.87c-.52,1.26-1.03,2.51-1.55,3.77-.12.3.13.7.44.77.36.08.64-.11.77-.44.52-1.26,1.03-2.51,1.55-3.77.12-.3-.13-.7-.44-.77-.36-.08-.64.11-.77.44h0Z"/>
        <path d="m92.41,7.26c11.45.56,22.92.53,34.36-.08.8-.04.81-1.29,0-1.25-11.45.61-22.91.64-34.36.08-.8-.04-.8,1.21,0,1.25h0Z"/>
        <path d="m115.91,10.3c4.73-.08,9.46-.16,14.19-.24.8-.01.81-1.26,0-1.25-4.73.08-9.46.16-14.19.24-.8.01-.81,1.26,0,1.25h0Z"/>
        <path d="m133.21,9.65c.8,0,.81-1.25,0-1.25s-.81,1.25,0,1.25h0Z"/>
        <path d="m163.48,6.05c-.59.81-1.18,1.63-1.77,2.44-.09.12-.1.34-.06.48s.15.3.29.37c.32.17.65.06.86-.22.59-.81,1.18-1.63,1.77-2.44.09-.12.1-.34.06-.48s-.15-.3-.29-.37c-.32-.17-.65-.06-.86.22h0Z"/>
        <path d="m166.1,6.47c-.52.74-1.03,1.48-1.55,2.22-.19.27-.06.71.22.86.32.17.66.06.86-.22.52-.74,1.03-1.48,1.55-2.22.19-.27.06-.71-.22-.86-.32-.17-.66-.06-.86.22h0Z"/>
        <path d="m185.97,6c13.89-.22,27.79-.45,41.68-.67.8-.01.81-1.26,0-1.25-13.89.22-27.79.45-41.68.67-.8.01-.81,1.26,0,1.25h0Z"/>
        <path d="m220.77,8.32h12.64c.8,0,.81-1.25,0-1.25h-12.64c-.8,0-.81,1.25,0,1.25h0Z"/>
        <path d="m257.8,5.22c.8,0,.81-1.25,0-1.25s-.81,1.25,0,1.25h0Z"/>
      </g>
    </g>
    <g>
      <g>
        <path class="cls-8" d="m279.99,158.51c-74.34,0-133.39,1.89-205.27,1.89V13.63c71.88,0,130.92-1.89,205.27-1.89v146.76Z"/>
        <path d="m279.99,157.88c-27.32,0-54.65.27-81.97.64-25.86.35-51.72.77-77.57,1.02-15.24.15-30.48.23-45.72.23l.62.62V15.84c0-.6.13-1.38,0-1.96-.02-.07,0-.17,0-.25l-.62.62c26.74,0,53.47-.28,80.21-.64,26.02-.35,52.05-.77,78.07-1.02,15.66-.15,31.33-.23,46.99-.23l-.62-.62v140.8c0,1.89-.13,3.83,0,5.72,0,.08,0,.16,0,.25,0,.8,1.25.81,1.25,0V17.71c0-1.89.13-3.83,0-5.72,0-.08,0-.16,0-.25,0-.34-.29-.63-.62-.62-27.32,0-54.65.27-81.97.64-25.86.35-51.72.77-77.57,1.02-15.24.15-30.48.23-45.72.23-.34,0-.62.29-.62.62v140.8c0,1.89-.13,3.83,0,5.72,0,.08,0,.16,0,.25,0,.34.29.63.62.62,26.74,0,53.47-.28,80.21-.64,26.02-.35,52.05-.77,78.07-1.02,15.66-.15,31.33-.23,46.99-.23.8,0,.81-1.25,0-1.25Z"/>
      </g>
      <g class="cls-6">
        <g>
          <path d="m70.65,20.34c2.62,2.61,6.07,5.24,9.99,4.8s6.48-3.83,10.25-4.22,7.02,2.19,10.33,3.43,6.5.72,9.68-.98c1.66-.89,3.26-1.95,5.06-2.55,2.1-.7,4.06-.4,6.07.49s3.68,1.9,5.69,2.49,4.04.84,6.08.76,4.09-.47,6.01-1.2,3.71-1.92,5.63-2.76c2.11-.92,4.19-1.02,6.29,0,1.63.79,3.05,1.93,4.62,2.81,3.08,1.72,6.21,1.66,9.43.33s6.41-3.69,10.03-4.46c7.67-1.62,14.22,5.75,22,3.65,3.65-.98,6.71-3.49,10.4-4.37,4.46-1.06,7.59,2.4,11.57,3.64s7.99.97,11.63-.58c1.82-.78,3.4-1.98,5.17-2.87,1.92-.96,3.88-1.12,5.94-.53,3.48,1,6.41,3.38,9.98,4.15s6.58-.46,9.63-1.88,6.66-3.56,10.25-2.68c3.32.81,5.44,3.88,8.21,5.66,1.23.79,2.57,1.28,4.04,1.33.8.03.8-1.22,0-1.25-3.39-.11-5.7-3.15-8.21-5.04-2.67-2.01-5.63-2.6-8.85-1.67s-6.31,3-9.66,4.01c-3.94,1.18-7.19-.23-10.69-1.98-2.94-1.47-6.14-2.93-9.47-1.93-1.85.56-3.42,1.71-5.07,2.66-1.92,1.1-4.03,1.82-6.24,2.03s-4.41-.01-6.51-.7-3.81-1.96-5.76-2.88c-3.36-1.59-6.58-.89-9.81.63-3.57,1.68-6.94,3.83-11.06,3.32-3.83-.47-7.28-2.46-10.96-3.51-3.46-.99-6.71-.79-10.01.65s-6.44,3.85-10.09,4.33c-4.01.53-6.67-2.45-10.02-4.03-3.71-1.76-6.88-.26-10.24,1.53-4.05,2.15-8.58,2.95-13.08,1.84-3.8-.93-7.18-4.05-11.25-3.64-3.58.36-6.32,2.95-9.6,4.16-3.84,1.41-7.18-.49-10.61-2.08-3.18-1.47-6.29-2.23-9.61-.71-1.68.77-3.18,1.88-4.87,2.64-2.08.94-4.26.94-6.35.01-1.94-.86-3.57-2.27-5.06-3.75-.57-.57-1.45.32-.88.88h0Z"/>
          <path d="m70.65,34.72c2.62,2.61,6.07,5.24,9.99,4.8s6.48-3.83,10.25-4.22,7.02,2.19,10.33,3.43,6.5.72,9.68-.98c1.66-.89,3.26-1.95,5.06-2.55,2.1-.7,4.06-.4,6.07.49s3.68,1.9,5.69,2.49,4.04.84,6.08.76,4.09-.47,6.01-1.2,3.71-1.92,5.63-2.76c2.11-.92,4.19-1.02,6.29,0,1.63.79,3.05,1.93,4.62,2.81,3.08,1.72,6.21,1.66,9.43.33s6.41-3.69,10.03-4.46c7.67-1.62,14.22,5.75,22,3.65,3.65-.98,6.71-3.49,10.4-4.37,4.46-1.06,7.59,2.4,11.57,3.64s7.99.97,11.63-.58c1.82-.78,3.4-1.98,5.17-2.87,1.92-.96,3.88-1.12,5.94-.53,3.48,1,6.41,3.38,9.98,4.15s6.58-.46,9.63-1.88,6.66-3.56,10.25-2.68c3.32.81,5.44,3.88,8.21,5.66,1.23.79,2.57,1.28,4.04,1.33.8.03.8-1.22,0-1.25-3.39-.11-5.7-3.15-8.21-5.04-2.67-2.01-5.63-2.6-8.85-1.67s-6.31,3-9.66,4.01c-3.94,1.18-7.19-.23-10.69-1.98-2.94-1.47-6.14-2.93-9.47-1.93-1.85.56-3.42,1.71-5.07,2.66-1.92,1.1-4.03,1.82-6.24,2.03s-4.41-.01-6.51-.7-3.81-1.96-5.76-2.88c-3.36-1.59-6.58-.89-9.81.63-3.57,1.68-6.94,3.83-11.06,3.32-3.83-.47-7.28-2.46-10.96-3.51-3.46-.99-6.71-.79-10.01.65s-6.44,3.85-10.09,4.33c-4.01.53-6.67-2.45-10.02-4.03-3.71-1.76-6.88-.26-10.24,1.53-4.05,2.15-8.58,2.95-13.08,1.84-3.8-.93-7.18-4.05-11.25-3.64-3.58.36-6.32,2.95-9.6,4.16-3.84,1.41-7.18-.49-10.61-2.08-3.18-1.47-6.29-2.23-9.61-.71-1.68.77-3.18,1.88-4.87,2.64-2.08.94-4.26.94-6.35.01-1.94-.86-3.57-2.27-5.06-3.75-.57-.57-1.45.32-.88.88h0Z"/>
          <path d="m70.65,49.1c2.62,2.61,6.07,5.24,9.99,4.8s6.48-3.83,10.25-4.22,7.02,2.19,10.33,3.43,6.5.72,9.68-.98c1.66-.89,3.26-1.95,5.06-2.55,2.1-.7,4.06-.4,6.07.49s3.68,1.9,5.69,2.49,4.04.84,6.08.76,4.09-.47,6.01-1.2,3.71-1.92,5.63-2.76c2.11-.92,4.19-1.02,6.29,0,1.63.79,3.05,1.93,4.62,2.81,3.08,1.72,6.21,1.66,9.43.33s6.41-3.69,10.03-4.46c7.67-1.62,14.22,5.75,22,3.65,3.65-.98,6.71-3.49,10.4-4.37,4.46-1.06,7.59,2.4,11.57,3.64s7.99.97,11.63-.58c1.82-.78,3.4-1.98,5.17-2.87,1.92-.96,3.88-1.12,5.94-.53,3.48,1,6.41,3.38,9.98,4.15s6.58-.46,9.63-1.88,6.66-3.56,10.25-2.68c3.32.81,5.44,3.88,8.21,5.66,1.23.79,2.57,1.28,4.04,1.33.8.03.8-1.22,0-1.25-3.39-.11-5.7-3.15-8.21-5.04-2.67-2.01-5.63-2.6-8.85-1.67s-6.31,3-9.66,4.01c-3.94,1.18-7.19-.23-10.69-1.98-2.94-1.47-6.14-2.93-9.47-1.93-1.85.56-3.42,1.71-5.07,2.66-1.92,1.1-4.03,1.82-6.24,2.03s-4.41-.01-6.51-.7-3.81-1.96-5.76-2.88c-3.36-1.59-6.58-.89-9.81.63-3.57,1.68-6.94,3.83-11.06,3.32-3.83-.47-7.28-2.46-10.96-3.51-3.46-.99-6.71-.79-10.01.65s-6.44,3.85-10.09,4.33c-4.01.53-6.67-2.45-10.02-4.03-3.71-1.76-6.88-.26-10.24,1.53-4.05,2.15-8.58,2.95-13.08,1.84-3.8-.93-7.18-4.05-11.25-3.64-3.58.36-6.32,2.95-9.6,4.16-3.84,1.41-7.18-.49-10.61-2.08-3.18-1.47-6.29-2.23-9.61-.71-1.68.77-3.18,1.88-4.87,2.64-2.08.94-4.26.94-6.35.01-1.94-.86-3.57-2.27-5.06-3.75-.57-.57-1.45.32-.88.88h0Z"/>
          <path d="m70.65,63.48c2.62,2.61,6.07,5.24,9.99,4.8s6.48-3.83,10.25-4.22,7.02,2.19,10.33,3.43,6.5.72,9.68-.98c1.66-.89,3.26-1.95,5.06-2.55,2.1-.7,4.06-.4,6.07.49s3.68,1.9,5.69,2.49,4.04.84,6.08.76,4.09-.47,6.01-1.2,3.71-1.92,5.63-2.76c2.11-.92,4.19-1.02,6.29,0,1.63.79,3.05,1.93,4.62,2.81,3.08,1.72,6.21,1.66,9.43.33s6.41-3.69,10.03-4.46c7.67-1.62,14.22,5.75,22,3.65,3.65-.98,6.71-3.49,10.4-4.37,4.46-1.06,7.59,2.4,11.57,3.64s7.99.97,11.63-.58c1.82-.78,3.4-1.98,5.17-2.87,1.92-.96,3.88-1.12,5.94-.53,3.48,1,6.41,3.38,9.98,4.15s6.58-.46,9.63-1.88,6.66-3.56,10.25-2.68c3.32.81,5.44,3.88,8.21,5.66,1.23.79,2.57,1.28,4.04,1.33.8.03.8-1.22,0-1.25-3.39-.11-5.7-3.15-8.21-5.04-2.67-2.01-5.63-2.6-8.85-1.67s-6.31,3-9.66,4.01c-3.94,1.18-7.19-.23-10.69-1.98-2.94-1.47-6.14-2.93-9.47-1.93-1.85.56-3.42,1.71-5.07,2.66-1.92,1.1-4.03,1.82-6.24,2.03s-4.41-.01-6.51-.7-3.81-1.96-5.76-2.88c-3.36-1.59-6.58-.89-9.81.63-3.57,1.68-6.94,3.83-11.06,3.32-3.83-.47-7.28-2.46-10.96-3.51-3.46-.99-6.71-.79-10.01.65s-6.44,3.85-10.09,4.33c-4.01.53-6.67-2.45-10.02-4.03-3.71-1.76-6.88-.26-10.24,1.53-4.05,2.15-8.58,2.95-13.08,1.84-3.8-.93-7.18-4.05-11.25-3.64-3.58.36-6.32,2.95-9.6,4.16-3.84,1.41-7.18-.49-10.61-2.08-3.18-1.47-6.29-2.23-9.61-.71-1.68.77-3.18,1.88-4.87,2.64-2.08.94-4.26.94-6.35.01-1.94-.86-3.57-2.27-5.06-3.75-.57-.57-1.45.32-.88.88h0Z"/>
          <path d="m70.65,77.86c2.62,2.61,6.07,5.24,9.99,4.8s6.48-3.83,10.25-4.22,7.02,2.19,10.33,3.43,6.5.72,9.68-.98c1.66-.89,3.26-1.95,5.06-2.55,2.1-.7,4.06-.4,6.07.49s3.68,1.9,5.69,2.49,4.04.84,6.08.76,4.09-.47,6.01-1.2,3.71-1.92,5.63-2.76c2.11-.92,4.19-1.02,6.29,0,1.63.79,3.05,1.93,4.62,2.81,3.08,1.72,6.21,1.66,9.43.33s6.41-3.69,10.03-4.46c7.67-1.62,14.22,5.75,22,3.65,3.65-.98,6.71-3.49,10.4-4.37,4.46-1.06,7.59,2.4,11.57,3.64s7.99.97,11.63-.58c1.82-.78,3.4-1.98,5.17-2.87,1.92-.96,3.88-1.12,5.94-.53,3.48,1,6.41,3.38,9.98,4.15s6.58-.46,9.63-1.88,6.66-3.56,10.25-2.68c3.32.81,5.44,3.88,8.21,5.66,1.23.79,2.57,1.28,4.04,1.33.8.03.8-1.22,0-1.25-3.39-.11-5.7-3.15-8.21-5.04-2.67-2.01-5.63-2.6-8.85-1.67s-6.31,3-9.66,4.01c-3.94,1.18-7.19-.23-10.69-1.98-2.94-1.47-6.14-2.93-9.47-1.93-1.85.56-3.42,1.71-5.07,2.66-1.92,1.1-4.03,1.82-6.24,2.03s-4.41-.01-6.51-.7-3.81-1.96-5.76-2.88c-3.36-1.59-6.58-.89-9.81.63-3.57,1.68-6.94,3.83-11.06,3.32-3.83-.47-7.28-2.46-10.96-3.51-3.46-.99-6.71-.79-10.01.65s-6.44,3.85-10.09,4.33c-4.01.53-6.67-2.45-10.02-4.03-3.71-1.76-6.88-.26-10.24,1.53-4.05,2.15-8.58,2.95-13.08,1.84-3.8-.93-7.18-4.05-11.25-3.64-3.58.36-6.32,2.95-9.6,4.16-3.84,1.41-7.18-.49-10.61-2.08-3.18-1.47-6.29-2.23-9.61-.71-1.68.77-3.18,1.88-4.87,2.64-2.08.94-4.26.94-6.35.01-1.94-.86-3.57-2.27-5.06-3.75-.57-.57-1.45.32-.88.88h0Z"/>
          <path d="m70.65,92.24c2.62,2.61,6.07,5.24,9.99,4.8s6.48-3.83,10.25-4.22,7.02,2.19,10.33,3.43,6.5.72,9.68-.98c1.66-.89,3.26-1.95,5.06-2.55,2.1-.7,4.06-.4,6.07.49s3.68,1.9,5.69,2.49,4.04.84,6.08.76,4.09-.47,6.01-1.2,3.71-1.92,5.63-2.76c2.11-.92,4.19-1.02,6.29,0,1.63.79,3.05,1.93,4.62,2.81,3.08,1.72,6.21,1.66,9.43.33s6.41-3.69,10.03-4.46c7.67-1.62,14.22,5.75,22,3.65,3.65-.98,6.71-3.49,10.4-4.37,4.46-1.06,7.59,2.4,11.57,3.64s7.99.97,11.63-.58c1.82-.78,3.4-1.98,5.17-2.87,1.92-.96,3.88-1.12,5.94-.53,3.48,1,6.41,3.38,9.98,4.15s6.58-.46,9.63-1.88,6.66-3.56,10.25-2.68c3.32.81,5.44,3.88,8.21,5.66,1.23.79,2.57,1.28,4.04,1.33.8.03.8-1.22,0-1.25-3.39-.11-5.7-3.15-8.21-5.04-2.67-2.01-5.63-2.6-8.85-1.67s-6.31,3-9.66,4.01c-3.94,1.18-7.19-.23-10.69-1.98-2.94-1.47-6.14-2.93-9.47-1.93-1.85.56-3.42,1.71-5.07,2.66-1.92,1.1-4.03,1.82-6.24,2.03s-4.41-.01-6.51-.7-3.81-1.96-5.76-2.88c-3.36-1.59-6.58-.89-9.81.63-3.57,1.68-6.94,3.83-11.06,3.32-3.83-.47-7.28-2.46-10.96-3.51-3.46-.99-6.71-.79-10.01.65s-6.44,3.85-10.09,4.33c-4.01.53-6.67-2.45-10.02-4.03-3.71-1.76-6.88-.26-10.24,1.53-4.05,2.15-8.58,2.95-13.08,1.84-3.8-.93-7.18-4.05-11.25-3.64-3.58.36-6.32,2.95-9.6,4.16-3.84,1.41-7.18-.49-10.61-2.08-3.18-1.47-6.29-2.23-9.61-.71-1.68.77-3.18,1.88-4.87,2.64-2.08.94-4.26.94-6.35.01-1.94-.86-3.57-2.27-5.06-3.75-.57-.57-1.45.32-.88.88h0Z"/>
          <path d="m70.65,106.62c2.62,2.61,6.07,5.24,9.99,4.8s6.48-3.83,10.25-4.22,7.02,2.19,10.33,3.43,6.5.72,9.68-.98c1.66-.89,3.26-1.95,5.06-2.55,2.1-.7,4.06-.4,6.07.49s3.68,1.9,5.69,2.49,4.04.84,6.08.76,4.09-.47,6.01-1.2,3.71-1.92,5.63-2.76c2.11-.92,4.19-1.02,6.29,0,1.63.79,3.05,1.93,4.62,2.81,3.08,1.72,6.21,1.66,9.43.33s6.41-3.69,10.03-4.46c7.67-1.62,14.22,5.75,22,3.65,3.65-.98,6.71-3.49,10.4-4.37,4.46-1.06,7.59,2.4,11.57,3.64s7.99.97,11.63-.58c1.82-.78,3.4-1.98,5.17-2.87,1.92-.96,3.88-1.13,5.94-.53,3.48,1,6.41,3.38,9.98,4.15s6.58-.46,9.63-1.88,6.66-3.56,10.25-2.68c3.32.81,5.44,3.88,8.21,5.66,1.23.79,2.57,1.28,4.04,1.33.8.03.8-1.22,0-1.25-3.39-.11-5.7-3.15-8.21-5.04-2.67-2.01-5.63-2.6-8.85-1.67s-6.31,3-9.66,4.01c-3.94,1.18-7.19-.23-10.69-1.98-2.94-1.47-6.14-2.93-9.47-1.93-1.85.56-3.42,1.71-5.07,2.66-1.92,1.1-4.03,1.82-6.24,2.03s-4.41-.01-6.51-.7-3.81-1.96-5.76-2.88c-3.36-1.59-6.58-.89-9.81.63-3.57,1.68-6.94,3.83-11.06,3.32-3.83-.47-7.28-2.46-10.96-3.51-3.46-.99-6.71-.79-10.01.65s-6.44,3.85-10.09,4.33c-4.01.53-6.67-2.45-10.02-4.03-3.71-1.76-6.88-.26-10.24,1.53-4.05,2.15-8.58,2.95-13.08,1.84-3.8-.93-7.18-4.05-11.25-3.64-3.58.36-6.32,2.95-9.6,4.16-3.84,1.41-7.18-.49-10.61-2.08-3.18-1.47-6.29-2.23-9.61-.71-1.68.77-3.18,1.88-4.87,2.64-2.08.94-4.26.94-6.35.01-1.94-.86-3.57-2.27-5.06-3.75-.57-.57-1.45.32-.88.88h0Z"/>
          <path d="m70.65,121c2.62,2.61,6.07,5.24,9.99,4.8s6.48-3.83,10.25-4.22,7.02,2.19,10.33,3.43,6.5.72,9.68-.98c1.66-.89,3.26-1.95,5.06-2.55,2.1-.7,4.06-.4,6.07.49s3.68,1.9,5.69,2.49,4.04.84,6.08.76,4.09-.47,6.01-1.2,3.71-1.92,5.63-2.76c2.11-.92,4.19-1.02,6.29,0,1.63.79,3.05,1.93,4.62,2.81,3.08,1.72,6.21,1.66,9.43.33s6.41-3.69,10.03-4.46c7.67-1.62,14.22,5.75,22,3.65,3.65-.98,6.71-3.49,10.4-4.37,4.46-1.06,7.59,2.4,11.57,3.64s7.99.97,11.63-.58c1.82-.78,3.4-1.98,5.17-2.87,1.92-.96,3.88-1.12,5.94-.53,3.48,1,6.41,3.38,9.98,4.15s6.58-.46,9.63-1.88,6.66-3.56,10.25-2.68c3.32.81,5.44,3.88,8.21,5.66,1.23.79,2.57,1.28,4.04,1.33.8.03.8-1.22,0-1.25-3.39-.11-5.7-3.15-8.21-5.04-2.67-2.01-5.63-2.6-8.85-1.67s-6.31,3-9.66,4.01c-3.94,1.18-7.19-.23-10.69-1.98-2.94-1.47-6.14-2.93-9.47-1.93-1.85.56-3.42,1.71-5.07,2.66-1.92,1.1-4.03,1.82-6.24,2.03s-4.41-.01-6.51-.7-3.81-1.96-5.76-2.88c-3.36-1.59-6.58-.89-9.81.63-3.57,1.68-6.94,3.83-11.06,3.32-3.83-.47-7.28-2.46-10.96-3.51-3.46-.99-6.71-.79-10.01.65s-6.44,3.85-10.09,4.33c-4.01.53-6.67-2.45-10.02-4.03-3.71-1.76-6.88-.26-10.24,1.53-4.05,2.15-8.58,2.95-13.08,1.84-3.8-.93-7.18-4.05-11.25-3.64-3.58.36-6.32,2.95-9.6,4.16-3.84,1.41-7.18-.49-10.61-2.08-3.18-1.47-6.29-2.23-9.61-.71-1.68.77-3.18,1.88-4.87,2.64-2.08.94-4.26.94-6.35.01-1.94-.86-3.57-2.27-5.06-3.75-.57-.57-1.45.32-.88.88h0Z"/>
          <path d="m70.65,135.38c2.62,2.61,6.07,5.24,9.99,4.8s6.48-3.83,10.25-4.22,7.02,2.19,10.33,3.43,6.5.72,9.68-.98c1.66-.89,3.26-1.95,5.06-2.55,2.1-.7,4.06-.4,6.07.49s3.68,1.9,5.69,2.49,4.04.84,6.08.76,4.09-.47,6.01-1.2,3.71-1.92,5.63-2.76c2.11-.92,4.19-1.02,6.29,0,1.63.79,3.05,1.93,4.62,2.81,3.08,1.72,6.21,1.66,9.43.33s6.41-3.69,10.03-4.46c7.67-1.62,14.22,5.75,22,3.65,3.65-.98,6.71-3.49,10.4-4.37,4.46-1.06,7.59,2.4,11.57,3.64s7.99.97,11.63-.58c1.82-.78,3.4-1.98,5.17-2.87,1.92-.96,3.88-1.12,5.94-.53,3.48,1,6.41,3.38,9.98,4.15s6.58-.46,9.63-1.88,6.66-3.56,10.25-2.68c3.32.81,5.44,3.88,8.21,5.66,1.23.79,2.57,1.28,4.04,1.33.8.03.8-1.22,0-1.25-3.39-.11-5.7-3.15-8.21-5.04-2.67-2.01-5.63-2.6-8.85-1.67s-6.31,3-9.66,4.01c-3.94,1.18-7.19-.23-10.69-1.98-2.94-1.47-6.14-2.93-9.47-1.93-1.85.56-3.42,1.71-5.07,2.66-1.92,1.1-4.03,1.82-6.24,2.03s-4.41-.01-6.51-.7-3.81-1.96-5.76-2.88c-3.36-1.59-6.58-.89-9.81.63-3.57,1.68-6.94,3.83-11.06,3.32-3.83-.47-7.28-2.46-10.96-3.51-3.46-.99-6.71-.79-10.01.65s-6.44,3.85-10.09,4.33c-4.01.53-6.67-2.45-10.02-4.03-3.71-1.76-6.88-.26-10.24,1.53-4.05,2.15-8.58,2.95-13.08,1.84-3.8-.93-7.18-4.05-11.25-3.64-3.58.36-6.32,2.95-9.6,4.16-3.84,1.41-7.18-.49-10.61-2.08-3.18-1.47-6.29-2.23-9.61-.71-1.68.77-3.18,1.88-4.87,2.64-2.08.94-4.26.94-6.35.01-1.94-.86-3.57-2.27-5.06-3.75-.57-.57-1.45.32-.88.88h0Z"/>
          <path d="m70.65,149.76c2.62,2.61,6.07,5.24,9.99,4.8s6.48-3.83,10.25-4.22,7.02,2.19,10.33,3.43,6.5.72,9.68-.98c1.66-.89,3.26-1.95,5.06-2.55,2.1-.7,4.06-.4,6.07.49s3.68,1.9,5.69,2.49,4.04.84,6.08.76,4.09-.47,6.01-1.2,3.71-1.92,5.63-2.76c2.11-.92,4.19-1.02,6.29,0,1.63.79,3.05,1.93,4.62,2.81,3.08,1.72,6.21,1.66,9.43.33s6.41-3.69,10.03-4.46c7.67-1.62,14.22,5.75,22,3.65,3.65-.98,6.71-3.49,10.4-4.37,4.46-1.06,7.59,2.4,11.57,3.64s7.99.97,11.63-.58c1.82-.78,3.4-1.98,5.17-2.87,1.92-.96,3.88-1.12,5.94-.53,3.48,1,6.41,3.38,9.98,4.15s6.58-.46,9.63-1.88,6.66-3.56,10.25-2.68c3.32.81,5.44,3.88,8.21,5.66,1.23.79,2.57,1.28,4.04,1.33.8.03.8-1.22,0-1.25-3.39-.11-5.7-3.15-8.21-5.04-2.67-2.01-5.63-2.6-8.85-1.67s-6.31,3-9.66,4.01c-3.94,1.18-7.19-.23-10.69-1.98-2.94-1.47-6.14-2.93-9.47-1.93-1.85.56-3.42,1.71-5.07,2.66-1.92,1.1-4.03,1.82-6.24,2.03s-4.41-.01-6.51-.7-3.81-1.96-5.76-2.88c-3.36-1.59-6.58-.89-9.81.63-3.57,1.68-6.94,3.83-11.06,3.32-3.83-.47-7.28-2.46-10.96-3.51-3.46-.99-6.71-.79-10.01.65s-6.44,3.85-10.09,4.33c-4.01.53-6.67-2.45-10.02-4.03-3.71-1.76-6.88-.26-10.24,1.53-4.05,2.15-8.58,2.95-13.08,1.84-3.8-.93-7.18-4.05-11.25-3.64-3.58.36-6.32,2.95-9.6,4.16-3.84,1.41-7.18-.49-10.61-2.08-3.18-1.47-6.29-2.23-9.61-.71-1.68.77-3.18,1.88-4.87,2.64-2.08.94-4.26.94-6.35.01-1.94-.86-3.57-2.27-5.06-3.75-.57-.57-1.45.32-.88.88h0Z"/>
        </g>
      </g>
    </g>
    <g>
      <g>
        <path class="cls-2" d="m255.24,137.64c-58.38,0-104.74,1.37-161.19,1.37V32.81c56.44,0,102.81-1.37,161.19-1.37v106.2Z"/>
        <path class="cls-3" d="m255.24,137.02c-21.39,0-42.79.2-64.18.46-20.36.25-40.72.56-61.08.74-11.97.11-23.95.17-35.92.17l.62.62V34.42c0-.41.12-1.03,0-1.43-.02-.05,0-.13,0-.19l-.62.62c20.93,0,41.87-.2,62.8-.46,20.49-.26,40.98-.56,61.47-.74,12.31-.11,24.61-.17,36.92-.17l-.62-.62v101.88c0,1.36-.11,2.78,0,4.14,0,.06,0,.12,0,.19,0,.8,1.25.81,1.25,0V35.76c0-1.36.11-2.78,0-4.14,0-.06,0-.12,0-.19,0-.34-.29-.63-.62-.62-21.39,0-42.79.2-64.18.46-20.36.25-40.72.56-61.08.74-11.97.11-23.95.17-35.92.17-.34,0-.62.29-.62.62v101.88c0,1.36-.11,2.78,0,4.14,0,.06,0,.12,0,.19,0,.34.29.63.62.62,20.93,0,41.87-.2,62.8-.46s40.98-.56,61.47-.74c12.31-.11,24.61-.17,36.92-.17.8,0,.81-1.25,0-1.25Z"/>
      </g>
      <g>
        <g>
          <path class="cls-1" d="m255.24,42.85c-58.38,0-104.77,2.31-161.21,2.31l.02-12.36c56.44,0,102.81-1.31,161.19-1.31v11.35Z"/>
          <path d="m255.24,42.23c-21.4,0-42.79.33-64.19.78s-40.73.94-61.09,1.25c-11.97.18-23.95.28-35.93.29l.62.62c0-4.12.01-8.24.02-12.36l-.62.62c20.93,0,41.87-.19,62.8-.44s40.98-.54,61.47-.7c12.31-.1,24.61-.16,36.92-.16l-.62-.62v11.35c0,.8,1.25.81,1.25,0v-11.35c0-.34-.29-.63-.62-.62-21.39,0-42.79.19-64.18.44s-40.72.53-61.08.7c-11.97.1-23.95.16-35.92.16-.34,0-.62.29-.62.62,0,4.12-.01,8.24-.02,12.36,0,.34.29.63.62.62,20.94,0,41.87-.34,62.81-.78,20.49-.43,40.98-.95,61.48-1.25,12.31-.18,24.61-.28,36.92-.29.8,0,.81-1.25,0-1.25Z"/>
        </g>
        <g>
          <path class="cls-7" d="m104.13,41.22c-.87-.22-1.57-1.04-1.66-1.89-.1-.93.46-1.76,1.31-2.16.77-.36,1.73-.17,2.32.45s.82,1.57.48,2.34c-.2.45-.57.81-1.02,1.05s-.97.31-1.42.21c-.33-.07-.68.1-.77.44-.09.31.11.7.44.77,1.4.31,2.86-.31,3.66-1.49.75-1.11.65-2.67-.12-3.75-.81-1.14-2.24-1.72-3.61-1.33s-2.41,1.61-2.52,3.03c-.13,1.59,1.05,3.16,2.58,3.54.78.2,1.11-1.01.33-1.21Z"/>
          <path class="cls-7" d="m115.1,42.42c1.4.31,2.86-.31,3.66-1.49.75-1.11.65-2.67-.12-3.75-.81-1.14-2.24-1.72-3.61-1.33s-2.41,1.61-2.52,3.03c-.13,1.59,1.05,3.16,2.58,3.54.78.2,1.11-1.01.33-1.21-.87-.22-1.57-1.04-1.66-1.89-.1-.93.46-1.76,1.31-2.16.77-.36,1.73-.17,2.32.45s.82,1.57.48,2.34c-.2.45-.57.81-1.02,1.05s-.97.31-1.42.21c-.33-.07-.68.1-.77.44-.09.31.11.7.44.77Z"/>
          <path class="cls-7" d="m126.72,41.22c-.87-.22-1.57-1.04-1.66-1.89-.1-.93.46-1.76,1.31-2.16.77-.36,1.73-.17,2.32.45s.82,1.57.48,2.34c-.2.45-.57.81-1.02,1.05s-.97.31-1.42.21c-.33-.07-.68.1-.77.44-.09.31.11.7.44.77,1.4.31,2.86-.31,3.66-1.49.75-1.11.65-2.67-.12-3.75-.81-1.14-2.24-1.72-3.61-1.33s-2.41,1.61-2.52,3.03c-.13,1.59,1.05,3.16,2.58,3.54.78.2,1.11-1.01.33-1.21Z"/>
        </g>
      </g>
    </g>
    <g>
      <g>
        <g>
          <path class="cls-4" d="m156.34,56.49c3.41-3.88,7.96-6.74,13.01-7.76,8.29-1.68,17.23,1.74,22.86,8.05,5.63,6.31,8.01,15.19,7.09,23.59-.93,8.41-8.23,20.87-15.8,24.84v11.91h-16.22v-11.97c-6.55-4.56-12.04-10.79-15.05-18.17-3.01-7.39-3.39-15.95-.35-23.32,1.08-2.61,2.6-5.04,4.46-7.16Z"/>
          <path d="m156.78,56.94c4.37-4.91,10.47-8.08,17.13-8,6.25.07,12.37,2.8,16.79,7.18,4.67,4.62,7.36,11.04,8,17.53.58,5.86-.62,11.34-3.2,16.6-2.73,5.57-6.73,11.43-12.32,14.44-.19.1-.31.33-.31.54v11.91l.62-.62h-16.22l.62.62v-11.08c0-.26.05-.57,0-.83-.13-.75-1.03-1.11-1.6-1.53-8.93-6.68-15.54-16.78-15.88-28.15-.21-6.79,1.91-13.43,6.37-18.6.52-.61-.36-1.49-.88-.88-5.12,5.93-7.32,13.67-6.62,21.44s3.84,14.26,8.57,19.93c2.64,3.17,5.74,5.91,9.11,8.28l-.31-.54v11.97c0,.34.29.62.62.62h16.22c.34,0,.62-.29.62-.62v-11.91l-.31.54c5.2-2.8,9.05-8,11.83-13.08,3.01-5.49,4.76-11.35,4.42-17.65-.37-6.68-2.75-13.29-7.15-18.38s-10.43-8.16-16.9-8.84c-7.69-.8-15.03,2.55-20.11,8.25-.53.6.35,1.49.88.88Z"/>
        </g>
        <g>
          <g>
            <path class="cls-2" d="m187.69,73.02c-1.79-1.04-1.58-3.79-2.9-5.4-1.4-1.7-4.12-1.68-5.71-3.21-1.09-1.05-1.46-2.79-.87-4.19,1.28-3.06,4.81-2.82,7.36-1.63,3.26,1.52,5.35,4.77,6.34,8.15.46,1.56.63,3.3-.12,4.74-.74,1.44-2.66,2.35-4.07,1.55,0,0-.02-.01-.03-.02Z"/>
            <path d="m188,72.48c-1.09-.69-1.32-2.13-1.71-3.26s-.99-2.19-2.04-2.9c-2.12-1.42-6.3-1.65-5.65-5.24.52-2.86,3.68-3.02,5.91-2.24,2.84.99,4.87,3.42,6.07,6.09.73,1.62,1.4,3.6.98,5.38-.34,1.44-1.98,3.07-3.55,2.17-.7-.4-1.33.68-.63,1.08,1.36.78,3.04.31,4.14-.7,1.43-1.32,1.58-3.4,1.25-5.2-.64-3.49-2.73-7.02-5.74-8.96-2.33-1.5-6.01-2.43-8.29-.33-1.19,1.09-1.67,2.8-1.31,4.36.41,1.73,1.73,2.75,3.29,3.4,1.75.73,3.48,1.15,4.23,3.08.62,1.58.86,3.38,2.41,4.36.68.43,1.31-.65.63-1.08Z"/>
          </g>
          <g>
            <path d="m177.35,117.16c.47-2.72-.02-5.56-1.62-7.85-1.11-1.59-3.38-3.13-4.97-1.2-1.26,1.54-.7,3.76,1.07,4.59,2.04.96,4.24-.09,5.45-1.83,1.43-2.07,1.67-4.84,1.04-7.23s-2.25-4.92-4.66-5.63c-1.87-.55-4.42.66-4.1,2.9.36,2.58,3.43,2.95,5.33,1.9,4.61-2.54,4.92-9.26,1.19-12.67-1.63-1.49-4.4-2.57-6.27-.86-1.66,1.52-1.04,4.02,1.01,4.82,2.34.91,5.07-.63,6.59-2.38s2.36-4.13,2.06-6.47-1.77-4.69-3.84-6.02c-1.88-1.2-4.8-1.81-6.38.19-1.74,2.21.47,4.72,2.83,4.91,2.82.22,5.49-1.67,6.8-4.07,3.24-5.93-1.09-12.26-5.89-15.65-.66-.46-1.28.62-.63,1.08,2.83,1.99,5.33,4.68,6.11,8.14s-.46,7.25-3.78,8.77c-.87.39-1.89.62-2.84.45-1.05-.19-2.24-1.08-1.91-2.3.6-2.24,3.75-1.28,5.06-.43,2.85,1.84,4.08,5.55,2.71,8.68-.59,1.34-1.58,2.51-2.83,3.27-.8.49-1.77.89-2.73.84-1.25-.06-2.69-1.22-1.8-2.55,1.18-1.75,3.65-.61,4.86.47,1.27,1.15,2.11,2.8,2.24,4.51s-.44,3.47-1.53,4.79c-.58.7-1.34,1.36-2.21,1.66-1.02.35-2.53.17-2.85-1.08-.3-1.13.94-1.86,1.9-1.81,1.02.05,1.91.77,2.57,1.49,1.17,1.28,1.89,2.99,2.06,4.72s-.2,3.84-1.4,5.25c-.65.76-1.55,1.3-2.57,1.26s-2.03-.62-2.07-1.7c-.03-.95.65-1.76,1.61-1.58,1.01.2,1.69,1.27,2.17,2.1,1.08,1.88,1.43,4.08,1.06,6.2-.14.79,1.07,1.12,1.21.33h0Z"/>
            <g>
              <path d="m153.26,74.82c.55,7.02,3.18,13.7,7.56,19.22.5.63,1.38-.26.88-.88-4.15-5.24-6.67-11.67-7.19-18.33-.06-.8-1.31-.8-1.25,0h0Z"/>
              <path d="m162.98,96.83c.8,0,.81-1.25,0-1.25s-.81,1.25,0,1.25h0Z"/>
              <path d="m188.55,83.08c-.24.48-.48.97-.73,1.45-.08.15-.11.31-.06.48.04.14.15.3.29.37.15.08.32.12.48.06.15-.05.3-.14.37-.29.24-.48.48-.97.73-1.45.08-.15.11-.31.06-.48-.04-.14-.15-.3-.29-.37-.15-.08-.32-.12-.48-.06-.15.05-.3.14-.37.29h0Z"/>
              <path d="m190.42,83.95c-.24.6-.48,1.21-.73,1.81-.06.14-.01.36.06.48s.22.25.37.29c.16.04.34.03.48-.06s.22-.21.29-.37c.24-.6.48-1.21.73-1.81.06-.14.01-.36-.06-.48s-.22-.25-.37-.29c-.16-.04-.34-.03-.48.06s-.22.21-.29.37h0Z"/>
              <path d="m163.29,56.26c2.19-2.18,5.18-3.47,8.27-3.55.8-.02.81-1.27,0-1.25-3.42.09-6.73,1.5-9.16,3.91-.57.57.31,1.45.88.88h0Z"/>
              <path d="m175.91,52.83c.8,0,.81-1.25,0-1.25s-.81,1.25,0,1.25h0Z"/>
              <path d="m156,63.72c-.36.81-.72,1.61-1.09,2.42-.07.16-.11.31-.06.48.04.14.15.3.29.37.27.14.71.09.86-.22.36-.81.72-1.61,1.09-2.42.07-.16.11-.31.06-.48-.04-.14-.15-.3-.29-.37-.27-.14-.71-.09-.86.22h0Z"/>
              <path d="m158.14,64.61c-.24.81-.48,1.61-.73,2.42-.09.31.11.7.44.77s.67-.1.77-.44c.24-.81.48-1.61.73-2.42.09-.31-.11-.7-.44-.77s-.67.1-.77.44h0Z"/>
              <path d="m163.34,74.11c.8,0,.81-1.25,0-1.25s-.81,1.25,0,1.25h0Z"/>
              <path d="m183.35,100.96c2.42-1.83,4.54-4.01,6.29-6.48.2-.28.05-.7-.22-.86-.31-.18-.66-.05-.86.22-1.62,2.29-3.61,4.34-5.85,6.04-.27.2-.41.54-.22.86.15.26.58.43.86.22h0Z"/>
              <path d="m190.54,92.24c.8,0,.81-1.25,0-1.25s-.81,1.25,0,1.25h0Z"/>
            </g>
          </g>
        </g>
      </g>
      <g>
        <g>
          <g>
            <path class="cls-8" d="m182.71,116.79c1.62,0,3.16,1.19,3.59,2.76.42,1.56-.31,3.37-1.71,4.19-.98.58-2.17.67-3.3.76-3.21.23-6.44.47-9.66.23-2.51-.18-7.01-.31-7.49-3.58-.34-2.29,1.8-3.66,3.79-3.96,1.79-.27,4.88-.17,8.26-.29l6.53-.09Z"/>
            <path d="m182.71,117.42c2.15.1,3.66,2.22,2.83,4.26-.93,2.3-3.72,2.16-5.79,2.3-3.76.26-7.76.52-11.49-.24-1.3-.27-2.85-.76-3.36-2.12-.71-1.86.86-3.23,2.51-3.69s3.64-.32,5.39-.35c1.31-.02,2.62-.06,3.93-.08l5.99-.08c.8-.01.81-1.26,0-1.25-2.15.03-4.3.04-6.45.09-2.33.05-4.68.02-7.01.16-1.79.11-3.7.49-4.92,1.94-1.1,1.31-1.14,3.24-.1,4.6s2.66,1.81,4.2,2.07c2.06.34,4.19.43,6.27.42,1.47,0,2.93-.08,4.39-.18s2.87-.09,4.25-.41c2.21-.5,3.86-2.39,3.68-4.72s-2.14-3.87-4.32-3.98c-.8-.04-.8,1.21,0,1.25Z"/>
          </g>
          <g>
            <path d="m167.19,117.54c-.08,2.29.06,4.57.39,6.83.05.33.47.52.77.44.36-.1.49-.43.44-.77-.31-2.15-.42-4.33-.35-6.5.03-.8-1.22-.8-1.25,0h0Z"/>
            <path d="m171,117.71c-.08,2.43,0,4.87.21,7.29.07.79,1.32.8,1.25,0-.22-2.43-.29-4.86-.21-7.29.02-.8-1.23-.8-1.25,0h0Z"/>
            <path d="m175.26,117.43c-.16,2.57-.02,5.14.37,7.69.05.33.47.52.77.44.36-.1.49-.43.44-.77-.38-2.43-.48-4.9-.33-7.36.05-.8-1.2-.8-1.25,0h0Z"/>
            <path d="m179.1,117.14c.02,2.41.04,4.82.06,7.24,0,.8,1.26.81,1.25,0-.02-2.41-.04-4.82-.06-7.24,0-.8-1.26-.81-1.25,0h0Z"/>
            <path d="m182.97,117.2c-.02,2.15-.04,4.29-.06,6.44,0,.8,1.24.81,1.25,0,.02-2.15.04-4.29.06-6.44,0-.8-1.24-.81-1.25,0h0Z"/>
          </g>
        </g>
        <g>
          <g>
            <path class="cls-8" d="m182.71,124.8c1.62,0,3.16,1.19,3.59,2.76.42,1.56-.31,3.37-1.71,4.19-.98.58-2.17.67-3.3.76-3.21.23-6.44.47-9.66.23-2.51-.18-7.01-.31-7.49-3.58-.34-2.29,1.8-3.66,3.79-3.96,1.79-.27,4.88-.17,8.26-.29l6.53-.09Z"/>
            <path d="m182.71,125.43c2.15.1,3.66,2.22,2.83,4.26-.93,2.3-3.72,2.16-5.79,2.3-3.76.26-7.76.52-11.49-.24-1.3-.27-2.85-.76-3.36-2.12-.71-1.86.86-3.23,2.51-3.69s3.64-.32,5.39-.35c1.31-.02,2.62-.06,3.93-.08l5.99-.08c.8-.01.81-1.26,0-1.25-2.15.03-4.3.04-6.45.09-2.33.05-4.68.02-7.01.16-1.79.11-3.7.49-4.92,1.94-1.1,1.31-1.14,3.24-.1,4.6s2.66,1.81,4.2,2.07c2.06.34,4.19.43,6.27.42,1.47,0,2.93-.08,4.39-.18s2.87-.09,4.25-.41c2.21-.5,3.86-2.39,3.68-4.72s-2.14-3.87-4.32-3.98c-.8-.04-.8,1.21,0,1.25Z"/>
          </g>
          <g>
            <path d="m166.96,125.58c-.26,2.24-.27,4.49,0,6.73.04.34.26.62.62.62.31,0,.66-.29.62-.62-.26-2.24-.26-4.49,0-6.73.04-.34-.32-.62-.62-.62-.37,0-.59.29-.62.62h0Z"/>
            <path d="m170.88,125.52c-.23,2.2-.26,4.41-.07,6.61.03.34.27.62.62.62.32,0,.65-.29.62-.62-.19-2.2-.16-4.41.07-6.61.04-.34-.31-.62-.62-.62-.37,0-.59.29-.62.62h0Z"/>
            <path d="m174.77,125.63c.11,2.13.23,4.25.34,6.38.04.8,1.29.81,1.25,0-.11-2.13-.23-4.25-.34-6.38-.04-.8-1.29-.81-1.25,0h0Z"/>
            <path d="m178.87,125.41c.13,2.18.27,4.37.4,6.55.05.8,1.3.8,1.25,0-.13-2.18-.27-4.37-.4-6.55-.05-.8-1.3-.8-1.25,0h0Z"/>
            <path d="m183.03,125.75c-.08,2.01-.16,4.03-.23,6.04-.03.8,1.22.8,1.25,0,.08-2.01.16-4.03.23-6.04.03-.8-1.22-.8-1.25,0h0Z"/>
          </g>
        </g>
      </g>
    </g>
    <g>
      <g>
        <polygon class="cls-4" points="292.23 170.2 292.23 .63 299.77 10.91 299.77 176.38 292.23 170.2"/>
        <path d="m292.86,170.2V3.18c0-.71.14-1.58,0-2.28-.02-.09,0-.19,0-.28l-1.16.32c1.89,2.58,3.78,5.16,5.67,7.74l1.38,1.88c.11.14.23.41.38.52.2.15.05.19.03-.16,0,.13,0,.27,0,.4-.11,2.54,0,5.11,0,7.65v154.55c0,.81-.13,1.74,0,2.54.02.1,0,.22,0,.32l1.07-.44c-2.51-2.06-5.03-4.12-7.54-6.18-.62-.51-1.51.37-.88.88,2.51,2.06,5.03,4.12,7.54,6.18.4.33,1.07.14,1.07-.44V12.17c0-.43.11-1.01-.02-1.43-.29-.94-1.36-1.92-1.93-2.7l-3.74-5.1-1.93-2.64c-.35-.47-1.16-.35-1.16.32v162.64c0,2.21-.11,4.45,0,6.66,0,.09,0,.19,0,.28,0,.8,1.25.81,1.25,0Z"/>
      </g>
      <g>
        <path d="m291.96,8.79c2.4,2.72,4.7,5.54,7.24,8.14.56.58,1.45-.31.88-.88-2.54-2.6-4.84-5.42-7.24-8.14-.53-.6-1.42.28-.88.88h0Z"/>
        <path d="m291.96,16.44c2.4,2.72,4.7,5.54,7.24,8.14.56.58,1.45-.31.88-.88-2.54-2.6-4.84-5.42-7.24-8.14-.53-.6-1.42.28-.88.88h0Z"/>
        <path d="m291.96,24.1c2.4,2.72,4.7,5.54,7.24,8.14.56.58,1.45-.31.88-.88-2.54-2.6-4.84-5.42-7.24-8.14-.53-.6-1.42.28-.88.88h0Z"/>
        <path d="m291.96,31.76c2.4,2.72,4.7,5.54,7.24,8.14.56.58,1.45-.31.88-.88-2.54-2.6-4.84-5.42-7.24-8.14-.53-.6-1.42.28-.88.88h0Z"/>
        <path d="m291.96,39.42c2.4,2.72,4.7,5.54,7.24,8.14.56.58,1.45-.31.88-.88-2.54-2.6-4.84-5.42-7.24-8.14-.53-.6-1.42.28-.88.88h0Z"/>
        <path d="m291.96,47.08c2.4,2.72,4.7,5.54,7.24,8.14.56.58,1.45-.31.88-.88-2.54-2.6-4.84-5.42-7.24-8.14-.53-.6-1.42.28-.88.88h0Z"/>
        <path d="m291.96,54.74c2.4,2.72,4.7,5.54,7.24,8.14.56.58,1.45-.31.88-.88-2.54-2.6-4.84-5.42-7.24-8.14-.53-.6-1.42.28-.88.88h0Z"/>
        <path d="m291.96,62.4c2.4,2.72,4.7,5.54,7.24,8.14.56.58,1.45-.31.88-.88-2.54-2.6-4.84-5.42-7.24-8.14-.53-.6-1.42.28-.88.88h0Z"/>
        <path d="m291.96,70.05c2.4,2.72,4.7,5.54,7.24,8.14.56.58,1.45-.31.88-.88-2.54-2.6-4.84-5.42-7.24-8.14-.53-.6-1.42.28-.88.88h0Z"/>
        <path d="m291.96,77.71c2.4,2.72,4.7,5.54,7.24,8.14.56.58,1.45-.31.88-.88-2.54-2.6-4.84-5.42-7.24-8.14-.53-.6-1.42.28-.88.88h0Z"/>
        <path d="m291.96,85.37c2.4,2.72,4.7,5.54,7.24,8.14.56.58,1.45-.31.88-.88-2.54-2.6-4.84-5.42-7.24-8.14-.53-.6-1.42.28-.88.88h0Z"/>
        <path d="m291.96,93.03c2.4,2.72,4.7,5.54,7.24,8.14.56.58,1.45-.31.88-.88-2.54-2.6-4.84-5.42-7.24-8.14-.53-.6-1.42.28-.88.88h0Z"/>
        <path d="m291.96,100.69c2.4,2.72,4.7,5.54,7.24,8.14.56.58,1.45-.31.88-.88-2.54-2.6-4.84-5.42-7.24-8.14-.53-.6-1.42.28-.88.88h0Z"/>
        <path d="m291.96,108.35c2.4,2.72,4.7,5.54,7.24,8.14.56.58,1.45-.31.88-.88-2.54-2.6-4.84-5.42-7.24-8.14-.53-.6-1.42.28-.88.88h0Z"/>
        <path d="m291.96,116.01c2.4,2.72,4.7,5.54,7.24,8.14.56.58,1.45-.31.88-.88-2.54-2.6-4.84-5.42-7.24-8.14-.53-.6-1.42.28-.88.88h0Z"/>
        <path d="m291.96,123.66c2.4,2.72,4.7,5.54,7.24,8.14.56.58,1.45-.31.88-.88-2.54-2.6-4.84-5.42-7.24-8.14-.53-.6-1.42.28-.88.88h0Z"/>
        <path d="m291.96,131.32c2.4,2.72,4.7,5.54,7.24,8.14.56.58,1.45-.31.88-.88-2.54-2.6-4.84-5.42-7.24-8.14-.53-.6-1.42.28-.88.88h0Z"/>
        <path d="m291.96,138.98c2.4,2.72,4.7,5.54,7.24,8.14.56.58,1.45-.31.88-.88-2.54-2.6-4.84-5.42-7.24-8.14-.53-.6-1.42.28-.88.88h0Z"/>
        <path d="m291.96,146.64c2.4,2.72,4.7,5.54,7.24,8.14.56.58,1.45-.31.88-.88-2.54-2.6-4.84-5.42-7.24-8.14-.53-.6-1.42.28-.88.88h0Z"/>
        <path d="m291.96,154.3c2.4,2.72,4.7,5.54,7.24,8.14.56.58,1.45-.31.88-.88-2.54-2.6-4.84-5.42-7.24-8.14-.53-.6-1.42.28-.88.88h0Z"/>
        <path d="m291.96,161.96c2.4,2.72,4.7,5.54,7.24,8.14.56.58,1.45-.31.88-.88-2.54-2.6-4.84-5.42-7.24-8.14-.53-.6-1.42.28-.88.88h0Z"/>
      </g>
    </g>
  </g>
</svg>